<?xml version="1.0" encoding="UTF-8"?>
<svg width="669px" height="437px" viewBox="0 0 669 437" version="1.1" xmlns="http://www.w3.org/2000/svg" xmlns:xlink="http://www.w3.org/1999/xlink">
    <!-- Generator: Sketch 55 (78076) - https://sketchapp.com -->
    <title>1</title>
    <desc>Created with Sketch.</desc>
    <g id="Page-1" stroke="none" stroke-width="1" fill="none" fill-rule="evenodd">
        <g id="Signin-Page-Design" transform="translate(-952.000000, -175.000000)">
            <g id="1" transform="translate(950.000000, 175.000000)">
                <path d="M600.104998,161.789488 L608.706991,172.862892 C608.849263,173.045703 609.150092,173.045703 609.292363,172.862892 L617.895292,161.788719 C617.99769,161.656273 618.028017,161.458853 617.972793,161.286999 C617.961374,161.251052 617.948644,161.223563 617.937974,161.202995 C617.872267,161.078045 617.746095,161 617.607567,161 L600.391787,161 C600.254009,161 600.127088,161.077853 600.061942,161.202995 C600.050898,161.223948 600.038168,161.251629 600.027498,161.284885 C599.971899,161.458853 600.002039,161.656657 600.104998,161.789488 Z" id="Path" fill="#E94F44" fill-rule="nonzero" transform="translate(609.000000, 167.000000) rotate(-57.000000) translate(-609.000000, -167.000000) "></path>
                <path d="M595.104998,268.789488 L603.706991,279.862892 C603.849263,280.045703 604.150092,280.045703 604.292363,279.862892 L612.895292,268.788719 C612.99769,268.656273 613.028017,268.458853 612.972793,268.286999 C612.961374,268.251052 612.948644,268.223563 612.937974,268.202995 C612.872267,268.078045 612.746095,268 612.607567,268 L595.391787,268 C595.254009,268 595.127088,268.077853 595.061942,268.202995 C595.050898,268.223948 595.038168,268.251629 595.027498,268.284885 C594.971899,268.458853 595.002039,268.656657 595.104998,268.789488 Z" id="Path-Copy-9" fill="#DBE4EE" transform="translate(604.000000, 274.000000) rotate(11.000000) translate(-604.000000, -274.000000) "></path>
                <path d="M655.052499,218.394744 L659.353496,223.931446 C659.424631,224.022851 659.575046,224.022851 659.646182,223.931446 L663.947646,218.39436 C663.998845,218.328136 664.014008,218.229426 663.986396,218.1435 C663.980687,218.125526 663.974322,218.111782 663.968987,218.101497 C663.936133,218.039023 663.873047,218 663.803784,218 L655.195894,218 C655.127004,218 655.063544,218.038927 655.030971,218.101497 C655.025449,218.111974 655.019084,218.125814 655.013749,218.142442 C654.98595,218.229426 655.001019,218.328329 655.052499,218.394744 Z" id="Path-Copy-10" fill="#DBE4EE" transform="translate(659.500000, 221.000000) rotate(-111.000000) translate(-659.500000, -221.000000) "></path>
                <path d="M654.052499,354.394744 L658.353496,359.931446 C658.424631,360.022851 658.575046,360.022851 658.646182,359.931446 L662.947646,354.39436 C662.998845,354.328136 663.014008,354.229426 662.986396,354.1435 C662.980687,354.125526 662.974322,354.111782 662.968987,354.101497 C662.936133,354.039023 662.873047,354 662.803784,354 L654.195894,354 C654.127004,354 654.063544,354.038927 654.030971,354.101497 C654.025449,354.111974 654.019084,354.125814 654.013749,354.142442 C653.98595,354.229426 654.001019,354.328329 654.052499,354.394744 Z" id="Path-Copy-11" fill="#DBE4EE" transform="translate(658.500000, 357.000000) rotate(-193.000000) translate(-658.500000, -357.000000) "></path>
                <path d="M628.052499,100.394744 L632.353496,105.931446 C632.424631,106.022851 632.575046,106.022851 632.646182,105.931446 L636.947646,100.39436 C636.998845,100.328136 637.014008,100.229426 636.986396,100.1435 C636.980687,100.125526 636.974322,100.111782 636.968987,100.101497 C636.936133,100.039023 636.873047,100 636.803784,100 L628.195894,100 C628.127004,100 628.063544,100.038927 628.030971,100.101497 C628.025449,100.111974 628.019084,100.125814 628.013749,100.142442 C627.98595,100.229426 628.001019,100.328329 628.052499,100.394744 Z" id="Path-Copy-13" fill="#DBE4EE" transform="translate(632.500000, 103.000000) rotate(-193.000000) translate(-632.500000, -103.000000) "></path>
                <path d="M50.5699988,256.526325 L56.3046608,263.908595 C56.3995084,264.030468 56.6000612,264.030468 56.6949088,263.908595 L62.4301949,256.525813 C62.4984602,256.437515 62.5186777,256.305902 62.4818619,256.191333 C62.4742491,256.167368 62.4657627,256.149042 62.4586492,256.13533 C62.4148445,256.05203 62.3307297,256 62.238378,256 L50.7611916,256 C50.6693392,256 50.5847251,256.051902 50.5412949,256.13533 C50.5339317,256.149299 50.5254453,256.167753 50.5183318,256.189923 C50.4812663,256.305902 50.501359,256.437772 50.5699988,256.526325 Z" id="Path-Copy-14" fill="#DBE4EE" transform="translate(56.500000, 260.000000) rotate(-250.000000) translate(-56.500000, -260.000000) "></path>
                <path d="M1.05249906,136.394744 L5.35349559,141.931446 C5.42463131,142.022851 5.57504591,142.022851 5.64618163,141.931446 L9.94764616,136.39436 C9.99884515,136.328136 10.0140083,136.229426 9.9863964,136.1435 C9.98068683,136.125526 9.97432205,136.111782 9.96898687,136.101497 C9.9361334,136.039023 9.87304725,136 9.80378353,136 L1.19589369,136 C1.12700437,136 1.06354382,136.038927 1.03097115,136.101497 C1.02544877,136.111974 1.019084,136.125814 1.01374882,136.142442 C0.985949727,136.229426 1.00101927,136.328329 1.05249906,136.394744 Z" id="Path-Copy-15" fill="#DBE4EE" transform="translate(5.500000, 139.000000) rotate(-198.000000) translate(-5.500000, -139.000000) "></path>
                <path d="M39.0962483,61.7236975 L46.9814086,71.8743177 C47.1118241,72.0418941 47.3875842,72.0418941 47.5179997,71.8743177 L55.404018,61.7229927 C55.4978828,61.6015835 55.5256819,61.4206151 55.4750601,61.2630826 C55.4645925,61.2301312 55.4529238,61.2049331 55.4431426,61.1860785 C55.3829112,61.0715416 55.2672533,61 55.1402698,61 L39.3591384,61 C39.2328413,61 39.116497,61.0713654 39.0567804,61.1860785 C39.0466561,61.2052855 39.0349873,61.2306599 39.0252062,61.2611443 C38.9742412,61.4206151 39.0018687,61.6019359 39.0962483,61.7236975 Z" id="Path-Copy-17" fill="#DBE4EE" transform="translate(47.250000, 66.500000) rotate(-198.000000) translate(-47.250000, -66.500000) "></path>
                <path d="M69.0524991,364.394744 L73.3534956,369.931446 C73.4246313,370.022851 73.5750459,370.022851 73.6461816,369.931446 L77.9476462,364.39436 C77.9988452,364.328136 78.0140083,364.229426 77.9863964,364.1435 C77.9806868,364.125526 77.9743221,364.111782 77.9689869,364.101497 C77.9361334,364.039023 77.8730473,364 77.8037835,364 L69.1958937,364 C69.1270044,364 69.0635438,364.038927 69.0309711,364.101497 C69.0254488,364.111974 69.019084,364.125814 69.0137488,364.142442 C68.9859497,364.229426 69.0010193,364.328329 69.0524991,364.394744 Z" id="Path-Copy-16" fill="#DBE4EE" transform="translate(73.500000, 367.000000) rotate(-250.000000) translate(-73.500000, -367.000000) "></path>
                <path d="M17.5699988,402.526325 L23.3046608,409.908595 C23.3995084,410.030468 23.6000612,410.030468 23.6949088,409.908595 L29.4301949,402.525813 C29.4984602,402.437515 29.5186777,402.305902 29.4818619,402.191333 C29.4742491,402.167368 29.4657627,402.149042 29.4586492,402.13533 C29.4148445,402.05203 29.3307297,402 29.238378,402 L17.7611916,402 C17.6693392,402 17.5847251,402.051902 17.5412949,402.13533 C17.5339317,402.149299 17.5254453,402.167753 17.5183318,402.189923 C17.4812663,402.305902 17.501359,402.437772 17.5699988,402.526325 Z" id="Path-Copy-18" fill="#DBE4EE" transform="translate(23.500000, 406.000000) rotate(-250.000000) translate(-23.500000, -406.000000) "></path>
                <path d="M601.052499,428.394744 L605.353496,433.931446 C605.424631,434.022851 605.575046,434.022851 605.646182,433.931446 L609.947646,428.39436 C609.998845,428.328136 610.014008,428.229426 609.986396,428.1435 C609.980687,428.125526 609.974322,428.111782 609.968987,428.101497 C609.936133,428.039023 609.873047,428 609.803784,428 L601.195894,428 C601.127004,428 601.063544,428.038927 601.030971,428.101497 C601.025449,428.111974 601.019084,428.125814 601.013749,428.142442 C600.98595,428.229426 601.001019,428.328329 601.052499,428.394744 Z" id="Path-Copy-12" fill="#DBE4EE" transform="translate(605.500000, 431.000000) rotate(-137.000000) translate(-605.500000, -431.000000) "></path>
                <path d="M651.104998,282.789488 L659.706991,293.862892 C659.849263,294.045703 660.150092,294.045703 660.292363,293.862892 L668.895292,282.788719 C668.99769,282.656273 669.028017,282.458853 668.972793,282.286999 C668.961374,282.251052 668.948644,282.223563 668.937974,282.202995 C668.872267,282.078045 668.746095,282 668.607567,282 L651.391787,282 C651.254009,282 651.127088,282.077853 651.061942,282.202995 C651.050898,282.223948 651.038168,282.251629 651.027498,282.284885 C650.971899,282.458853 651.002039,282.656657 651.104998,282.789488 Z" id="Path-Copy-2" fill="#F39C12" fill-rule="nonzero" transform="translate(660.000000, 288.000000) rotate(27.000000) translate(-660.000000, -288.000000) "></path>
                <path d="M7.10499813,4.78948823 L15.7069912,15.862892 C15.8492626,16.0457027 16.1500918,16.0457027 16.2923633,15.862892 L24.8952923,4.78871931 C24.9976903,4.6562729 25.0280166,4.45885279 24.9727928,4.28699925 C24.9613737,4.25105226 24.9486441,4.22356338 24.9379737,4.20299478 C24.8722668,4.07804534 24.7460945,4 24.6075671,4 L7.39178739,4 C7.25400874,4 7.12708764,4.07785311 7.0619423,4.20299478 C7.05089754,4.22394784 7.03816799,4.25162895 7.02749763,4.28488472 C6.97189945,4.45885279 7.00203854,4.65665736 7.10499813,4.78948823 Z" id="Path-Copy-19" fill="#F39C12" fill-rule="nonzero" transform="translate(16.000000, 10.000000) rotate(27.000000) translate(-16.000000, -10.000000) "></path>
                <path d="M600.052499,364.394744 L604.353496,369.931446 C604.424631,370.022851 604.575046,370.022851 604.646182,369.931446 L608.947646,364.39436 C608.998845,364.328136 609.014008,364.229426 608.986396,364.1435 C608.980687,364.125526 608.974322,364.111782 608.968987,364.101497 C608.936133,364.039023 608.873047,364 608.803784,364 L600.195894,364 C600.127004,364 600.063544,364.038927 600.030971,364.101497 C600.025449,364.111974 600.019084,364.125814 600.013749,364.142442 C599.98595,364.229426 600.001019,364.328329 600.052499,364.394744 Z" id="Path-Copy-6" fill="#9B59B6" fill-rule="nonzero" transform="translate(604.500000, 367.000000) rotate(27.000000) translate(-604.500000, -367.000000) "></path>
                <path d="M661.052499,402.394744 L664.829028,410.105137 C664.900163,410.196543 665.050578,410.196543 665.121714,410.105137 L669.947646,402.39436 C669.998845,402.328136 670.014008,402.229426 669.986396,402.1435 C669.980687,402.125526 669.974322,402.111782 669.968987,402.101497 C669.936133,402.039023 669.873047,402 669.803784,402 L661.195894,402 C661.127004,402 661.063544,402.038927 661.030971,402.101497 C661.025449,402.111974 661.019084,402.125814 661.013749,402.142442 C660.98595,402.229426 661.001019,402.328329 661.052499,402.394744 Z" id="Path-Copy-7" fill="#0082FF" fill-rule="nonzero" transform="translate(665.500000, 406.086846) rotate(193.000000) translate(-665.500000, -406.086846) "></path>
                <path d="M57.0524991,139.394744 L60.8290276,147.105137 C60.9001634,147.196543 61.050578,147.196543 61.1217137,147.105137 L65.9476462,139.39436 C65.9988452,139.328136 66.0140083,139.229426 65.9863964,139.1435 C65.9806868,139.125526 65.9743221,139.111782 65.9689869,139.101497 C65.9361334,139.039023 65.8730473,139 65.8037835,139 L57.1958937,139 C57.1270044,139 57.0635438,139.038927 57.0309711,139.101497 C57.0254488,139.111974 57.019084,139.125814 57.0137488,139.142442 C56.9859497,139.229426 57.0010193,139.328329 57.0524991,139.394744 Z" id="Path-Copy-8" fill="#0082FF" fill-rule="nonzero" transform="translate(61.500000, 143.086846) rotate(193.000000) translate(-61.500000, -143.086846) "></path>
                <path d="M19.1049981,193.789488 L27.7069912,204.862892 C27.8492626,205.045703 28.1500918,205.045703 28.2923633,204.862892 L36.8952923,193.788719 C36.9976903,193.656273 37.0280166,193.458853 36.9727928,193.286999 C36.9613737,193.251052 36.9486441,193.223563 36.9379737,193.202995 C36.8722668,193.078045 36.7460945,193 36.6075671,193 L19.3917874,193 C19.2540087,193 19.1270876,193.077853 19.0619423,193.202995 C19.0508975,193.223948 19.038168,193.251629 19.0274976,193.284885 C18.9718995,193.458853 19.0020385,193.656657 19.1049981,193.789488 Z" id="Path-Copy-3" fill="#E74C3C" fill-rule="nonzero" transform="translate(28.000000, 199.000000) rotate(-133.000000) translate(-28.000000, -199.000000) "></path>
                <path d="M54.0583323,315.394744 L58.8372173,320.931446 C58.916257,321.022851 59.0833843,321.022851 59.162424,320.931446 L63.9418291,315.39436 C63.9987168,315.328136 64.0155648,315.229426 63.9848849,315.1435 C63.9785409,315.125526 63.9714689,315.111782 63.965541,315.101497 C63.9290371,315.039023 63.8589414,315 63.7819817,315 L54.2176597,315 C54.141116,315 54.0706042,315.038927 54.0344124,315.101497 C54.0282764,315.111974 54.0212044,315.125814 54.0152765,315.142442 C53.9843886,315.229426 54.0011325,315.328329 54.0583323,315.394744 Z" id="Path-Copy-5" fill="#1A9ED4" fill-rule="nonzero" transform="translate(59.000000, 318.000000) rotate(-10.000000) translate(-59.000000, -318.000000) "></path>
            </g>
        </g>
    </g>
</svg>