<?xml version="1.0" encoding="UTF-8"?>
<svg width="1211px" height="657px" viewBox="0 0 1211 657" version="1.1" xmlns="http://www.w3.org/2000/svg" xmlns:xlink="http://www.w3.org/1999/xlink">
    <!-- Generator: Sketch 54.1 (76490) - https://sketchapp.com -->
    <title>Group 37</title>
    <desc>Created with Sketch.</desc>
    <defs>
        <linearGradient x1="-10.8685662%" y1="46.9441351%" x2="91.1448759%" y2="54.1251698%" id="linearGradient-1">
            <stop stop-color="#5CB0F7" offset="0%"></stop>
            <stop stop-color="#2F78EB" stop-opacity="0" offset="100%"></stop>
        </linearGradient>
        <linearGradient x1="-10.8685662%" y1="46.9216618%" x2="91.1448759%" y2="54.1555069%" id="linearGradient-2">
            <stop stop-color="#5CB0F7" offset="0%"></stop>
            <stop stop-color="#2F78EB" stop-opacity="0" offset="100%"></stop>
        </linearGradient>
        <linearGradient x1="-10.8685662%" y1="46.9763867%" x2="91.1448759%" y2="54.0816327%" id="linearGradient-3">
            <stop stop-color="#5CB0F7" offset="0%"></stop>
            <stop stop-color="#2F78EB" stop-opacity="0" offset="100%"></stop>
        </linearGradient>
        <linearGradient x1="58.4527044%" y1="48.7241697%" x2="60.4273689%" y2="47.3904893%" id="linearGradient-4">
            <stop stop-color="#00A5D5" stop-opacity="0" offset="0%"></stop>
            <stop stop-color="#0052D5" offset="100%"></stop>
        </linearGradient>
        <linearGradient x1="28.5062534%" y1="88.5645481%" x2="62.598405%" y2="-0.854746488%" id="linearGradient-5">
            <stop stop-color="#8300D5" stop-opacity="0" offset="0%"></stop>
            <stop stop-color="#0082D5" offset="100%"></stop>
        </linearGradient>
        <linearGradient x1="60.4273689%" y1="86.8633237%" x2="60.4273689%" y2="23.5669771%" id="linearGradient-6">
            <stop stop-color="#00A5D5" stop-opacity="0" offset="0%"></stop>
            <stop stop-color="#0052D5" offset="100%"></stop>
        </linearGradient>
        <linearGradient x1="53.4876953%" y1="94.5834662%" x2="46.0885777%" y2="1.11022302e-14%" id="linearGradient-7">
            <stop stop-color="#EE9AE5" stop-opacity="0" offset="0%"></stop>
            <stop stop-color="#5961F9" offset="100%"></stop>
        </linearGradient>
    </defs>
    <g id="Page-1" stroke="none" stroke-width="1" fill="none" fill-rule="evenodd">
        <g id="About-Us-Page-Design---weDevs" transform="translate(-710.000000, -2114.000000)">
            <g id="Group-37" transform="translate(-32.000000, 2114.000000)">
                <g id="Group-35">
                    <path d="M1553.13651,4.97454545 C1544.18483,4.97454545 1536.48713,10.3909091 1533.12476,18.1472727 C1529.48464,7.57636364 1519.52912,0 1507.80145,0 C1493.00218,0 1481,12.0927273 1481,27 L1531.2714,27 L1534.6029,27 L1575,27 C1575,14.8418182 1565.20529,4.97454545 1553.13651,4.97454545" id="Fill-1-Copy-3" fill="url(#linearGradient-1)" opacity="0.131082589"></path>
                    <path d="M1767.18248,5.89575758 C1756.61187,5.89575758 1747.52203,12.3151515 1743.55158,21.5078788 C1739.25314,8.97939394 1727.49715,0 1713.64852,0 C1696.17278,0 1682,14.3321212 1682,32 L1741.36304,32 L1745.29705,32 L1793,32 C1793,17.590303 1781.4339,5.89575758 1767.18248,5.89575758" id="Fill-1-Copy-5" fill="url(#linearGradient-2)" opacity="0.081812686"></path>
                    <path d="M1696.2967,115.212121 C1679.63133,115.212121 1665.3005,125.242424 1659.04078,139.606061 C1652.26395,120.030303 1633.72974,106 1611.89632,106 C1584.34448,106 1562,128.393939 1562,156 L1655.59037,156 L1661.79264,156 L1737,156 C1737,133.484848 1718.76516,115.212121 1696.2967,115.212121" id="Fill-1-Copy-4" fill="url(#linearGradient-3)" opacity="0.0720703125"></path>
                    <path d="M199.070868,600.037302 C414.4582,466.342889 673.608359,385.358658 976.521345,357.08461 C1279.43433,328.810561 1553.86474,359.990116 1799.81257,450.623275 C1911.7847,502.311307 1980.53753,541.994377 2006.07104,569.672485 C2031.60455,597.350593 2028.25441,629.19709 1996.02061,665.211977 L0,758 L199.070868,600.037302 Z" id="Path-3" fill="url(#linearGradient-4)" opacity="0.048218936"></path>
                    <path d="M788.067887,516.764757 C788.067887,516.764757 916.844606,576.395828 1090.82136,458.067713 C1264.79812,339.739598 1297.52136,149.578357 1297.52136,149.578357 L1279.86499,149.578357 L1330.30664,80 L1353,147.785377 L1336.89143,147.785377 C1336.89143,149.685401 1308.00141,420.3125 1070.53394,629 L742,629 L742,518.691543 L788.067887,516.764757 Z" id="Path" fill="url(#linearGradient-5)" opacity="0.138178943"></path>
                    <path d="M1356.05471,422.687453 L1356.05471,344.382627 L1356.05471,308.472862 L1403.96143,308.472862 L1403.70962,232.239719 L1464.76616,217.687453 L1464.76616,261.85903 L1498.90017,261.85903 L1498.90017,300.651568 L1521.25078,300.651568 L1521.25078,309.821419 L1552.94524,309.821419 L1552.94524,276.760671 L1554.84188,276.760671 L1555.88485,248.768405 L1556.71886,248.768405 L1557.76005,276.760671 L1559.65846,276.760671 L1559.65846,309.821419 L1575.37622,309.821419 L1575.37622,370.386658 L1590.67964,370.386658 L1590.67964,316.332976 L1608.52798,316.332976 L1608.52798,301.009383 L1615.16977,301.009383 L1615.16977,316.332976 L1627.66218,316.332976 L1627.66218,333.690375 L1634.30217,333.690375 L1634.30217,300.692076 L1657.03496,306.6821 L1657.03496,323.435264 L1660.46033,323.435264 L1660.46033,410.141246 L1669.32199,410.141246 L1669.32199,342.713387 L1674.66721,342.713387 L1674.66721,298.970513 L1706.59742,298.970513 L1706.59742,342.713387 L1712.52841,342.713387 L1712.52841,277.648457 L1713.65531,277.648457 L1713.65531,342.713387 L1723.85819,342.713387 L1723.85819,339.111609 L1726.0245,339.111609 L1727.21391,316.542264 L1728.1658,316.542264 L1729.357,339.111609 L1731.5233,339.111609 L1731.5233,342.713387 L1742.62806,342.713387 L1753.2417,326.550955 L1758.89766,317.93808 L1769.98635,317.619084 L1769.98635,281.82409 L1780.66249,281.82409 L1780.66249,317.311903 L1788.049,317.09924 L1792.11193,329.734157 L1794.22287,329.734157 L1794.22287,336.299723 L1796.28381,342.713387 L1796.28381,368.611086 L1808.05471,386.793857 L1808.05471,419.010408 L1356.05471,422.687453 Z" id="Fill-1" fill="url(#linearGradient-6)" opacity="0.103627232" transform="translate(1582.054710, 320.187453) rotate(3.000000) translate(-1582.054710, -320.187453) "></path>
                </g>
                <path d="M1099.62899,404.900121 C1100.07212,404.80601 1104.09575,402.506181 1103.99826,398.047688 C1103.89191,393.589196 1104.09575,387.007331 1103.48718,383.966381 C1102.87566,380.928371 1100.02781,373.734787 1100.1253,370.593844 C1100.23165,367.455841 1099.51673,364.111972 1097.38084,360.162265 C1095.24495,356.209618 1092.62162,349.466001 1089.46653,348.048459 C1086.31144,346.633858 1078.5537,346.483869 1076.92593,345.16632 C1075.29817,343.84877 1072.85504,343.445859 1072.95844,342.634155 C1073.03525,342.013613 1073.00866,340.528429 1072.55667,339.381455 C1072.59507,339.413806 1072.6187,339.434392 1072.6187,339.434392 C1072.6187,339.434392 1071.33067,334.799442 1071.5995,334.261247 C1071.87425,333.720111 1073.90674,332.502554 1074.17852,330.885027 C1074.45031,329.261618 1073.7738,325.073694 1074.04263,323.859078 C1074.31442,322.644462 1074.31442,320.753426 1073.6379,319.941722 C1072.95844,319.130017 1072.95844,314.539182 1071.87425,312.107009 C1070.7871,309.677778 1068.34397,307.651458 1067.66746,307.245605 C1066.98799,306.839753 1066.30853,303.866444 1061.42523,304.00467 C1057.08255,304.122308 1054.77531,306.163333 1052.87576,307.651458 C1050.97621,309.136641 1048.40014,311.704098 1047.72067,316.565502 C1047.04416,321.429847 1049.48138,327.235298 1050.57148,329.126334 C1051.65567,331.01737 1052.33514,331.152654 1052.47103,332.908406 C1052.60693,334.667099 1053.41933,335.07001 1053.69112,336.016999 C1053.96291,336.961046 1054.63942,337.366899 1054.77531,337.76981 C1054.77531,337.76981 1053.41933,340.707827 1053.41933,341.519532 L1053.41933,342.331236 C1053.41933,342.331236 1044.97327,346.383876 1040.08997,349.52482 C1035.20371,352.662822 1033.16827,355.094994 1032.35586,357.224248 C1031.5405,359.350561 1029.60845,365.429521 1032.6631,372.82309 C1032.6631,372.82309 1032.35586,373.837721 1033.77979,375.8611 C1035.20371,377.88742 1034.89648,378.090346 1035.10032,379.304962 C1035.30711,380.522519 1036.32336,383.763454 1037.23916,385.992701 C1038.15496,388.221947 1039.17416,388.727792 1039.27461,389.539496 C1039.378,390.34826 1039.47845,393.386269 1039.378,394.703819 C1039.27461,396.021368 1038.99396,399.615219 1039.27461,402.303255 C1039.78864,407.208773 1039.07372,415.628736 1038.83738,418.566753 C1038.36471,424.48102 1038.12542,426.374997 1038.12542,426.374997 C1038.12542,426.374997 1037.36914,429.977671 1038.36176,432.053987 C1038.08111,432.877455 1038.55673,435.130229 1038.36176,435.603724 C1037.64979,437.324184 1038.66309,436.644823 1038.97032,437.962372 C1039.27461,439.279921 1038.25836,441.812086 1038.3588,443.938399 C1038.45925,446.070594 1037.64684,447.891047 1037.95112,449.917367 C1038.25836,451.943687 1038.05452,453.464162 1037.95112,455.387549 C1037.85068,457.313877 1037.34256,457.313877 1037.74728,458.019707 C1038.15496,458.731418 1037.95112,460.151901 1037.95112,460.857731 C1037.95112,461.566502 1037.443,462.884051 1037.64684,464.301593 C1037.85068,465.722076 1037.443,466.124987 1037.95112,467.139618 C1038.45925,468.151307 1038.66309,468.254241 1038.25836,469.671783 C1037.85068,471.089325 1037.54344,471.698103 1037.54344,472.912719 C1037.54344,474.130275 1037.95112,475.750743 1038.05452,477.571196 C1038.15496,479.397531 1038.15496,479.497524 1037.443,481.72677 C1036.73104,483.956016 1036.21996,487.299886 1036.11952,489.426199 C1036.01907,491.555452 1035.61139,493.375905 1035.71184,494.693455 C1035.81523,496.011004 1036.01907,501.784105 1035.71184,504.013351 C1035.40755,506.242597 1034.79899,507.35722 1034.89648,509.889385 C1035.00283,512.42155 1036.11952,521.135609 1036.21996,524.376545 C1036.32336,527.617481 1036.62764,529.440875 1036.93488,532.378892 C1037.23916,535.316909 1036.93488,536.228606 1037.03532,538.457853 C1037.13872,540.687099 1036.73104,544.43388 1036.93488,545.042658 C1037.13872,545.651436 1037.54344,546.866052 1037.443,549.604084 C1037.34256,552.336234 1036.73104,552.336234 1036.62764,554.159628 C1036.5272,555.983022 1035.91863,555.780096 1036.5272,557.197638 C1037.13872,558.618121 1037.23916,560.441515 1037.34256,561.756123 C1037.443,563.073672 1037.23916,564.494155 1037.23916,564.494155 C1037.23916,564.494155 1042.12541,565 1050.97621,565 C1051.28344,565 1052.19925,564.291229 1052.80781,564.391222 C1053.41933,564.494155 1055.75906,564.897066 1058.60987,564.697081 C1061.45772,564.494155 1062.27308,563.685392 1062.37353,563.176606 C1062.47692,562.670761 1062.06924,560.847367 1061.56112,560.238589 C1061.05004,559.62981 1058.81371,559.326892 1057.69407,558.312261 C1056.57442,557.300572 1055.75906,556.791786 1056.16674,556.488867 C1056.57442,556.185948 1057.69407,555.274251 1057.89791,554.565481 C1058.09879,553.85671 1056.57442,552.53916 1056.87871,551.424537 C1057.18594,550.309914 1057.49023,547.574823 1057.28639,546.76606 C1057.08255,545.954355 1054.23469,539.36955 1054.63942,537.649089 C1055.05005,535.925688 1057.89791,520.020986 1057.79451,515.968346 C1057.69407,511.915706 1058.91415,500.366563 1059.01755,495.20224 C1059.04118,493.996448 1059.17708,492.349511 1059.38092,490.50553 C1059.95108,486.479359 1060.64532,480.71214 1061.01755,479.600457 C1061.4075,478.435838 1062.4267,472.556863 1064.07219,467.674872 C1064.50055,466.551426 1064.94073,465.436803 1065.35432,464.436877 C1065.6586,463.80163 1065.9747,463.213439 1066.30853,462.713476 C1067.23024,461.337107 1067.78858,460.36365 1068.12831,459.681348 C1068.34693,459.531359 1068.47986,459.572532 1068.47986,459.946034 C1068.47986,460.757739 1068.47986,462.984044 1068.7871,464.201601 C1069.09139,465.419157 1070.10763,465.722076 1069.59951,467.23961 C1069.09139,468.760086 1068.6837,467.745455 1068.88754,469.265931 C1069.09139,470.786406 1068.88754,473.521497 1068.7871,475.547817 C1068.6837,477.571196 1068.7871,476.865366 1068.88754,479.600457 C1068.98799,482.335548 1068.17558,488.008657 1068.58326,490.237903 C1068.98799,492.464208 1069.80335,493.072987 1069.69995,495.302233 C1069.59951,497.531479 1068.37942,496.922701 1068.7871,499.557799 C1069.19478,502.189957 1069.09139,503.30458 1069.19478,506.042612 C1069.29227,508.774762 1068.58326,510.39523 1068.6837,513.942026 C1068.7871,517.488821 1069.09139,526.299932 1068.07514,531.570129 C1067.05594,536.837385 1067.36022,537.649089 1067.15638,540.787092 C1066.95254,543.928035 1066.44442,541.192944 1065.9363,544.639747 C1065.42817,548.083609 1066.75166,548.386527 1066.54782,551.933323 C1066.34398,555.477178 1065.32478,556.791786 1065.32478,560.138596 C1065.32478,563.479525 1065.22433,564.594148 1065.22433,564.594148 C1065.22433,564.594148 1078.66301,564.352989 1080.38531,564.697081 C1080.89638,564.797074 1081.81219,564.088303 1082.93183,564.188296 C1084.04852,564.291229 1093.51379,565.099993 1096.56843,564.897066 C1099.62013,564.697081 1100.84021,563.888318 1101.04405,563.479525 C1101.24789,563.073672 1100.73682,561.453204 1099.72057,560.847367 C1098.70432,560.238589 1094.22575,560.238589 1091.98942,558.821047 C1089.74718,557.403505 1089.34245,556.694734 1088.22281,555.88303 C1087.10317,555.071325 1087.50789,554.462547 1086.28781,552.84502 C1085.06772,551.221611 1083.94808,553.047946 1083.94808,549.804069 C1083.94808,546.563133 1086.3912,533.290589 1086.49165,530.658432 C1086.59209,528.023333 1087.40745,514.650797 1087.40745,510.092311 C1087.40745,505.533826 1088.73093,491.555452 1090.05442,488.108649 C1091.3779,484.664787 1095.75307,466.530839 1096.36459,460.757739 C1096.97611,454.981697 1096.76932,452.955377 1097.07656,448.193965 C1097.32471,444.30896 1097.44288,441.79444 1097.86238,440.497478 C1099.32766,439.991633 1100.45912,439.403442 1100.63933,438.679966 C1101.02042,437.15949 1096.95544,415.572858 1096.95544,406.141205 C1096.95544,404.544265 1097.76193,405.300091 1099.62899,404.900121" id="Fill-1" fill="url(#linearGradient-7)" opacity="0.778506324"></path>
            </g>
        </g>
    </g>
</svg>