<?xml version="1.0" encoding="UTF-8"?>
<svg width="143px" height="33px" viewBox="0 0 143 33" version="1.1" xmlns="http://www.w3.org/2000/svg" xmlns:xlink="http://www.w3.org/1999/xlink">
    <!-- Generator: Sketch 54.1 (76490) - https://sketchapp.com -->
    <title>Group 19</title>
    <desc>Created with Sketch.</desc>
    <g id="Page-1" stroke="none" stroke-width="1" fill="none" fill-rule="evenodd">
        <g id="About-Us-Page-Design---weDevs" transform="translate(-1078.000000, -3487.000000)" fill-rule="nonzero">
            <g id="Group-19" transform="translate(1078.000000, 3487.000000)">
                <g id="Group-18">
                    <path d="M67.1303343,6.36144578 C67.4211142,6.36144578 67.5525627,6.4926506 67.5007799,6.78289157 L64.2066017,23.7281928 C63.9437047,25.1237349 63.5732591,25.9904819 63.1271309,26.3324096 C62.6810028,26.6743373 61.7289972,26.8572289 60.2790808,26.8572289 C58.6459331,26.8572289 57.5903621,26.6981928 57.1402507,26.3562651 C56.6901393,26.0143373 56.2957939,25.163494 55.9452646,23.7242169 L53.5991086,13.7844578 L51.2091365,23.7242169 C50.3925627,26.6703614 50.3646797,26.6981928 46.9111699,26.8572289 C45.4612535,26.8572289 44.4853482,26.6743373 44.0392201,26.3324096 C43.5930919,25.9904819 43.2425627,25.1396386 42.9597493,23.7281928 L39.6894708,6.78289157 C39.637688,6.4926506 39.7412535,6.36144578 40.0320334,6.36144578 L43.5373259,6.36144578 C43.7205571,6.36144578 43.8520056,6.4926506 43.9077716,6.78289157 L46.7279387,21.8595181 C46.8593872,22.5155422 46.9908357,22.6546988 47.3333983,22.6546988 C47.7556267,22.6546988 47.8352925,22.523494 48.0185237,21.8595181 L51.4720334,7.49457831 C51.5202962,7.2327238 51.7599492,7.05030558 52.0257103,7.07313253 L55.1366574,7.07313253 C55.3963071,7.05173023 55.6273264,7.23690182 55.6624513,7.49457831 L59.143844,21.8595181 C59.3270752,22.5155422 59.3828412,22.6546988 59.8050696,22.6546988 C60.1476323,22.6546988 60.2790808,22.4956627 60.4105292,21.8595181 L63.2306964,6.78289157 C63.3103621,6.44096386 63.3900279,6.36144578 63.6290251,6.36144578 L67.1303343,6.36144578 Z" id="Shape" fill="#008CD2"></path>
                    <path d="M83.4219777,7.64963855 C84.5572145,8.59590361 85.1108914,10.3612048 85.1108914,12.9654217 C85.1108914,15.676988 84.688663,17.199759 83.398078,18.1340964 C82.107493,19.0684337 80.4464624,19.3268675 77.3872981,19.3268675 L74.1170195,19.3268675 L74.1170195,26.2727711 C74.1170195,26.6146988 74.0373538,26.6942169 73.7186908,26.6942169 L70.3727298,26.6942169 C70.0580501,26.6942169 69.9744011,26.6146988 69.9744011,26.2727711 L69.9744011,6.82662651 C69.9744011,6.53638554 70.0540669,6.4846988 70.3727298,6.45686747 C72.5077716,6.2739759 74.8260446,6.16662651 77.3833148,6.16662651 C80.3110306,6.20240964 82.314624,6.67951807 83.4219777,7.64963855 Z M74.1170195,9.80855422 L74.1170195,16.17 L76.9650696,16.17 C78.5583844,16.17 79.6537883,15.9871084 80.1516992,15.6173494 C80.64961,15.2475904 80.9164903,14.3808434 80.9164903,13.0648193 C80.9164903,11.7487952 80.6535933,10.8820482 80.1198329,10.4606024 C79.5860724,10.0391566 78.5265181,9.80457831 76.9571031,9.80457831 L74.1170195,9.80855422 Z" id="Shape" fill="#008CD2"></path>
                    <path d="M105.748301,6.36144578 C105.858151,6.34512056 105.969252,6.38172218 106.047784,6.46010831 C106.126315,6.53849445 106.162985,6.64939008 106.14663,6.75903614 L106.14663,9.5739759 C106.162985,9.68362197 106.126315,9.7945176 106.047784,9.87290373 C105.969252,9.95128987 105.858151,9.98789149 105.748301,9.97156627 L96.2840111,9.97156627 L96.2840111,14.9454217 L104.931727,14.9454217 C105.222507,14.9454217 105.353955,15.0766265 105.353955,15.343012 L105.353955,18.026747 C105.353955,18.2891566 105.222507,18.4243373 104.931727,18.4243373 L96.2840111,18.4243373 L96.2840111,23.1357831 L105.748301,23.1357831 C105.858151,23.1194579 105.969252,23.1560595 106.047784,23.2344457 C106.126315,23.3128318 106.162985,23.4237274 106.14663,23.5333735 L106.14663,26.3483133 C106.162985,26.4579593 106.126315,26.5688549 106.047784,26.6472411 C105.969252,26.7256272 105.858151,26.7622288 105.748301,26.7459036 L92.5437047,26.7459036 C92.2808078,26.7459036 92.145376,26.6146988 92.145376,26.3244578 L92.145376,6.75903614 C92.1290205,6.64939008 92.1656901,6.53849445 92.2442218,6.46010831 C92.3227535,6.38172218 92.4338551,6.34512056 92.5437047,6.36144578 L105.748301,6.36144578 Z" id="Shape" fill="#2A327F"></path>
                    <path d="M122.685237,7.64963855 C123.820474,8.59590361 124.37415,10.3612048 124.37415,12.9654217 C124.37415,14.9533735 124.08337,16.3846988 123.477911,17.3071084 C122.872451,18.2295181 121.844763,18.8060241 120.339081,19.0962651 L124.820279,26.2012048 C125.031393,26.4914458 124.899944,26.7260241 124.505599,26.7260241 L121.171588,26.7260241 C120.733249,26.7693888 120.31349,26.5385543 120.116017,26.1455422 L115.79415,19.3586747 L113.368329,19.3586747 L113.368329,26.3045783 C113.368329,26.646506 113.288663,26.7260241 112.97,26.7260241 L109.624039,26.7260241 C109.309359,26.7260241 109.22571,26.646506 109.22571,26.3045783 L109.22571,6.85843373 C109.22571,6.56819277 109.305376,6.51650602 109.624039,6.4886747 C111.759081,6.30578313 114.077354,6.19843373 116.634624,6.19843373 C119.56234,6.20240964 121.565933,6.67951807 122.685237,7.64963855 Z M113.380279,9.80855422 L113.380279,16.17 L116.228329,16.17 C117.821643,16.17 118.917047,15.9871084 119.414958,15.6173494 C119.912869,15.2475904 120.179749,14.3808434 120.179749,13.0648193 C120.179749,11.7487952 119.916852,10.8820482 119.383092,10.4606024 C118.849331,10.0391566 117.789777,9.80457831 116.220362,9.80457831 L113.380279,9.80855422 Z" id="Shape" fill="#2A327F"></path>
                    <path d="M140.912758,7.64963855 C142.047994,8.59590361 142.601671,10.3612048 142.601671,12.9654217 C142.601671,15.676988 142.179443,17.199759 140.888858,18.1340964 C139.598273,19.0684337 137.937242,19.3268675 134.878078,19.3268675 L131.607799,19.3268675 L131.607799,26.2727711 C131.607799,26.6146988 131.528134,26.6942169 131.209471,26.6942169 L127.86351,26.6942169 C127.54883,26.6942169 127.465181,26.6146988 127.465181,26.2727711 L127.465181,6.82662651 C127.465181,6.53638554 127.544847,6.4846988 127.86351,6.45686747 C129.998552,6.2739759 132.316825,6.16662651 134.874095,6.16662651 C137.821727,6.20240964 139.81337,6.67951807 140.912758,7.64963855 Z M131.607799,9.80855422 L131.607799,16.17 L134.45585,16.17 C136.049164,16.17 137.144568,15.9871084 137.642479,15.6173494 C138.14039,15.2475904 138.40727,14.3808434 138.40727,13.0648193 C138.40727,11.7487952 138.144373,10.8820482 137.610613,10.4606024 C137.076852,10.0391566 136.017298,9.80457831 134.447883,9.80457831 L131.607799,9.80855422 Z" id="Shape" fill="#2A327F"></path>
                    <path d="M24.7202786,4.08325301 C24.2269147,3.95914014 23.7193417,3.90032269 23.2106128,3.90831325 C20.852507,3.90831325 18.4705014,4.67168675 16.2956267,5.52650602 C14.4870738,6.22217026 12.7524235,7.09587901 11.1173538,8.1346988 C10.0617827,8.81855422 7.74350975,10.0113253 7.62002786,11.4307229 C7.52841226,12.4724096 8.79509749,13.2318072 9.68735376,13.3431325 C10.5079109,13.446506 11.1532033,13.033012 11.8383287,12.5956627 C12.786351,11.9913253 13.6507242,11.4744578 14.4832312,11.0053012 C17.6698607,9.24795181 23.1349304,6.95783133 26.6720891,5.73722892 C26.0736894,5.1273138 25.4203314,4.57365433 24.7202786,4.08325301 L24.7202786,4.08325301 Z" id="Shape" fill="#C3C4C6"></path>
                    <path d="M6.80345404,12.1583133 C6.80345404,12.1583133 6.80345404,12.1344578 6.80345404,12.1225301 C6.80345404,12.1106024 6.80345404,12.1463855 6.80345404,12.1583133 Z" id="Shape" fill="#A9AAAD"></path>
                    <path d="M24.9991086,24.3484337 L24.2582173,24.6545783 C23.3818942,25.0203614 22.4737047,25.4020482 21.5535655,25.7161446 C20.5336151,26.054399 19.487907,26.3096905 18.4266852,26.4795181 C18.0687814,26.5410416 17.7063984,26.5729573 17.3432312,26.5749398 C15.4830362,26.5749398 14.6266295,25.616747 14.2362674,24.7340964 C13.853906,23.867457 13.8684468,22.8776072 14.2761003,22.0225301 C15.8096657,18.8418072 26.4649582,14.9414458 27.6758774,14.5080723 C29.002312,14.0309639 31.1333705,13.406747 32.6350696,12.9693976 C32.8023677,10.3810843 30.2092479,7.35144578 28.8469638,6.75108434 C26.365376,7.39518072 18.8130641,10.2936145 14.5509471,12.6592771 C13.73039,13.116506 12.8779666,13.6254217 11.9418942,14.2218072 C11.300585,14.6193976 10.5835933,15.0885542 9.68337047,15.0885542 C9.57153481,15.0888085 9.45979013,15.0821694 9.34877437,15.0686747 C8.21820504,14.9377079 7.24344694,14.2148141 6.79150418,13.1721687 C6.06256267,11.3114458 7.18983287,10.1544578 8.03428969,9.30759036 L8.32108635,9.01337349 L8.34100279,8.99349398 C10.9181894,6.69939759 15.3157382,3.49879518 23.8320056,1.97204819 C17.6247144,-1.09880372 10.1500874,0.0900994523 5.20648028,4.93459683 C0.262873215,9.77909421 -1.06552735,17.2167351 1.89632739,23.4679588 C4.85818213,29.7191825 11.4607254,33.4130279 18.3487652,32.6724063 C25.2368049,31.9317847 30.8997196,26.9191223 32.459805,20.1816867 C30.1111253,21.8039519 27.6129392,23.1991714 24.9991086,24.3484337 Z" id="Shape" fill="#00A0E3"></path>
                    <path d="M30.9103064,15.5418072 C27.8752289,16.3218593 24.9075136,17.3429458 22.0355432,18.5953012 C20.5716445,19.2252714 19.1700503,19.9906594 17.8491086,20.8814458 C17.1361003,21.3784337 15.4073538,22.5036145 15.3515877,23.4777108 C15.2759053,24.8215663 17.1480501,25.4855422 18.243454,25.243012 C20.5179109,24.7340964 22.3820891,23.4936145 24.3617827,22.4598795 C26.5622797,21.3605875 28.6685589,20.0826733 30.6593593,18.6390361 C30.8312094,17.7614499 30.9179148,16.8693734 30.918273,15.9751807 C30.9222563,15.8320482 30.9142897,15.6889157 30.9103064,15.5418072 Z" id="Shape" fill="#C3C4C6"></path>
                </g>
            </g>
        </g>
    </g>
</svg>