<?xml version="1.0" encoding="UTF-8"?>
<svg width="428px" height="239px" viewBox="0 0 428 239" version="1.1" xmlns="http://www.w3.org/2000/svg" xmlns:xlink="http://www.w3.org/1999/xlink">
    <!-- Generator: Sketch 55 (78076) - https://sketchapp.com -->
    <title>3</title>
    <desc>Created with Sketch.</desc>
    <defs>
        <linearGradient x1="0%" y1="56.2601412%" x2="88.9044334%" y2="12.9919089%" id="linearGradient-1">
            <stop stop-color="#96A0FF" stop-opacity="0" offset="0%"></stop>
            <stop stop-color="#32C5FF" offset="100%"></stop>
        </linearGradient>
        <linearGradient x1="-1.53268713%" y1="50%" x2="163.700923%" y2="50%" id="linearGradient-2">
            <stop stop-color="#96A0FF" stop-opacity="0" offset="0%"></stop>
            <stop stop-color="#32C5FF" offset="100%"></stop>
        </linearGradient>
        <linearGradient x1="53.6734115%" y1="2.49800181e-14%" x2="53.6734115%" y2="97.906989%" id="linearGradient-3">
            <stop stop-color="#007CF5" stop-opacity="0.1" offset="0%"></stop>
            <stop stop-color="#F5F7F9" stop-opacity="0" offset="100%"></stop>
        </linearGradient>
        <linearGradient x1="53.6734115%" y1="2.49800181e-14%" x2="53.6734115%" y2="97.906989%" id="linearGradient-4">
            <stop stop-color="#0043F5" stop-opacity="0.07" offset="0%"></stop>
            <stop stop-color="#F5F7F9" stop-opacity="0" offset="100%"></stop>
        </linearGradient>
        <linearGradient x1="53.6734115%" y1="2.49800181e-14%" x2="53.6734115%" y2="81.0697115%" id="linearGradient-5">
            <stop stop-color="#4200F5" stop-opacity="0.1" offset="0%"></stop>
            <stop stop-color="#F5F7F9" stop-opacity="0" offset="100%"></stop>
        </linearGradient>
        <linearGradient x1="53.6734115%" y1="2.49800181e-14%" x2="53.6734115%" y2="97.906989%" id="linearGradient-6">
            <stop stop-color="#F55F00" stop-opacity="0.1" offset="0%"></stop>
            <stop stop-color="#F5F7F9" stop-opacity="0" offset="100%"></stop>
        </linearGradient>
        <linearGradient x1="-1.11022302e-14%" y1="50%" x2="100%" y2="50%" id="linearGradient-7">
            <stop stop-color="#FFFFFF" offset="0%"></stop>
            <stop stop-color="#FFFFFF" stop-opacity="0" offset="100%"></stop>
        </linearGradient>
        <linearGradient x1="57.0588523%" y1="90.6704769%" x2="38.2673683%" y2="1.66533454e-14%" id="linearGradient-8">
            <stop stop-color="#ABDCFF" stop-opacity="0" offset="0%"></stop>
            <stop stop-color="#0396FF" offset="100%"></stop>
        </linearGradient>
        <polygon id="path-9" points="0.336975458 0.284658361 11.4032495 0.284658361 11.4032495 5.57735344 0.336975458 5.57735344"></polygon>
        <linearGradient x1="14.5524094%" y1="41.9236647%" x2="82.7722259%" y2="58.0632744%" id="linearGradient-11">
            <stop stop-color="#7ED500" offset="0%"></stop>
            <stop stop-color="#00BF8D" offset="100%"></stop>
        </linearGradient>
        <linearGradient x1="14.5524094%" y1="46.0291057%" x2="82.7722259%" y2="53.9644726%" id="linearGradient-12">
            <stop stop-color="#7ED500" offset="0%"></stop>
            <stop stop-color="#00BF8D" offset="100%"></stop>
        </linearGradient>
        <linearGradient x1="45.6764481%" y1="96.4354789%" x2="55.8308501%" y2="15.1491852%" id="linearGradient-13">
            <stop stop-color="#FDE1C8" offset="0%"></stop>
            <stop stop-color="#FABF97" offset="100%"></stop>
        </linearGradient>
        <linearGradient x1="0%" y1="37.3481257%" x2="85.7611205%" y2="65.280691%" id="linearGradient-14">
            <stop stop-color="#ABDCFF" offset="0%"></stop>
            <stop stop-color="#0396FF" offset="100%"></stop>
        </linearGradient>
        <linearGradient x1="23.2553291%" y1="0%" x2="94.2487326%" y2="100%" id="linearGradient-15">
            <stop stop-color="#EE9AE5" offset="0%"></stop>
            <stop stop-color="#5961F9" offset="100%"></stop>
        </linearGradient>
        <linearGradient x1="50%" y1="11.860388%" x2="50%" y2="100%" id="linearGradient-16">
            <stop stop-color="#FDE1C8" offset="0%"></stop>
            <stop stop-color="#FABF97" offset="100%"></stop>
        </linearGradient>
        <linearGradient x1="68.3652878%" y1="-22.8847766%" x2="68.3652878%" y2="109.293916%" id="linearGradient-17">
            <stop stop-color="#F9FBFE" offset="0%"></stop>
            <stop stop-color="#C2D7F3" offset="100%"></stop>
        </linearGradient>
        <linearGradient x1="29.483838%" y1="0%" x2="64.6736188%" y2="110.389041%" id="linearGradient-18">
            <stop stop-color="#ABDCFF" offset="0%"></stop>
            <stop stop-color="#0396FF" offset="100%"></stop>
        </linearGradient>
        <linearGradient x1="31.7328805%" y1="32.9783777%" x2="64.8139853%" y2="69.4327078%" id="linearGradient-19">
            <stop stop-color="#FDE1C8" offset="0%"></stop>
            <stop stop-color="#FABF97" offset="100%"></stop>
        </linearGradient>
        <linearGradient x1="41.047625%" y1="17.0171725%" x2="70.5143353%" y2="95.8271578%" id="linearGradient-20">
            <stop stop-color="#FDE1C8" offset="0%"></stop>
            <stop stop-color="#FABF97" offset="100%"></stop>
        </linearGradient>
        <linearGradient x1="0%" y1="5.28321565%" x2="112.834783%" y2="124.50651%" id="linearGradient-21">
            <stop stop-color="#FFD3A5" offset="0%"></stop>
            <stop stop-color="#FD6585" offset="100%"></stop>
        </linearGradient>
        <path d="M15.1597114,50.219837 C15.1597114,50.219837 11.7331167,34.3306308 21.838127,32.1637139 C31.9425681,29.9962276 32.7094103,50.0672533 32.7094103,50.0672533 C32.7094103,50.0672533 29.7223123,71.6014888 57.7146143,64.4926803 C57.7146143,64.4926803 64.9435394,62.4846098 66.4003688,68.6779158 C67.8577675,74.8706525 64.4579296,78.2713344 60.207563,79.3639023 C55.958335,80.4570396 37.0167066,82.0352566 32.0376406,80.9426886 C32.0376406,80.9426886 22.8093466,80.5783095 15.1597114,50.219837" id="path-22"></path>
        <linearGradient x1="100%" y1="0%" x2="100%" y2="211.254883%" id="linearGradient-23">
            <stop stop-color="#FFA1EB" offset="0%"></stop>
            <stop stop-color="#FD575B" offset="100%"></stop>
        </linearGradient>
        <linearGradient x1="100%" y1="0%" x2="100%" y2="211.254883%" id="linearGradient-24">
            <stop stop-color="#FFA1EB" offset="0%"></stop>
            <stop stop-color="#FD575B" offset="100%"></stop>
        </linearGradient>
        <linearGradient x1="24.7960227%" y1="25.2689113%" x2="66.8405127%" y2="86.9045621%" id="linearGradient-25">
            <stop stop-color="#FDE1C8" offset="0%"></stop>
            <stop stop-color="#FABF97" offset="100%"></stop>
        </linearGradient>
        <linearGradient x1="50%" y1="0%" x2="50%" y2="100%" id="linearGradient-26">
            <stop stop-color="#91D1E8" offset="0%"></stop>
            <stop stop-color="#49CDFF" offset="100%"></stop>
        </linearGradient>
        <linearGradient x1="50%" y1="5.79627437%" x2="53.0874872%" y2="100%" id="linearGradient-27">
            <stop stop-color="#72D0FF" offset="0%"></stop>
            <stop stop-color="#0D75CF" offset="100%"></stop>
        </linearGradient>
        <polygon id="path-28" points="0.336975458 0.284658361 11.4032495 0.284658361 11.4032495 5.57735344 0.336975458 5.57735344"></polygon>
        <path d="M15.1597114,50.219837 C15.1597114,50.219837 11.7331167,34.3306308 21.838127,32.1637139 C31.9425681,29.9962276 32.7094103,50.0672533 32.7094103,50.0672533 C32.7094103,50.0672533 29.7223123,71.6014888 57.7146143,64.4926803 C57.7146143,64.4926803 64.9435394,62.4846098 66.4003688,68.6779158 C67.8577675,74.8706525 64.4579296,78.2713344 60.207563,79.3639023 C55.958335,80.4570396 37.0167066,82.0352566 32.0376406,80.9426886 C32.0376406,80.9426886 22.8093466,80.5783095 15.1597114,50.219837" id="path-30"></path>
        <ellipse id="path-31" cx="16.5" cy="17" rx="16.5" ry="17"></ellipse>
        <filter x="-25.8%" y="-19.1%" width="151.5%" height="150.0%" filterUnits="objectBoundingBox" id="filter-32">
            <feOffset dx="0" dy="2" in="SourceAlpha" result="shadowOffsetOuter1"></feOffset>
            <feGaussianBlur stdDeviation="2.5" in="shadowOffsetOuter1" result="shadowBlurOuter1"></feGaussianBlur>
            <feColorMatrix values="0 0 0 0 0.0671040332   0 0 0 0 0.120218191   0 0 0 0 0.385336947  0 0 0 0.05 0" type="matrix" in="shadowBlurOuter1"></feColorMatrix>
        </filter>
        <ellipse id="path-33" cx="17" cy="16.3926049" rx="17" ry="16.5"></ellipse>
        <filter x="-25.0%" y="-19.7%" width="150.0%" height="151.5%" filterUnits="objectBoundingBox" id="filter-34">
            <feOffset dx="0" dy="2" in="SourceAlpha" result="shadowOffsetOuter1"></feOffset>
            <feGaussianBlur stdDeviation="2.5" in="shadowOffsetOuter1" result="shadowBlurOuter1"></feGaussianBlur>
            <feColorMatrix values="0 0 0 0 0.0671040332   0 0 0 0 0.120218191   0 0 0 0 0.385336947  0 0 0 0.05 0" type="matrix" in="shadowBlurOuter1"></feColorMatrix>
        </filter>
        <circle id="path-35" cx="17" cy="17" r="17"></circle>
        <filter x="-25.0%" y="-19.1%" width="150.0%" height="150.0%" filterUnits="objectBoundingBox" id="filter-36">
            <feOffset dx="0" dy="2" in="SourceAlpha" result="shadowOffsetOuter1"></feOffset>
            <feGaussianBlur stdDeviation="2.5" in="shadowOffsetOuter1" result="shadowBlurOuter1"></feGaussianBlur>
            <feColorMatrix values="0 0 0 0 0.0671040332   0 0 0 0 0.120218191   0 0 0 0 0.385336947  0 0 0 0.05 0" type="matrix" in="shadowBlurOuter1"></feColorMatrix>
        </filter>
        <ellipse id="path-37" cx="17" cy="16.5" rx="17" ry="16.5"></ellipse>
        <filter x="-25.0%" y="-19.7%" width="150.0%" height="151.5%" filterUnits="objectBoundingBox" id="filter-38">
            <feOffset dx="0" dy="2" in="SourceAlpha" result="shadowOffsetOuter1"></feOffset>
            <feGaussianBlur stdDeviation="2.5" in="shadowOffsetOuter1" result="shadowBlurOuter1"></feGaussianBlur>
            <feColorMatrix values="0 0 0 0 0.0671040332   0 0 0 0 0.120218191   0 0 0 0 0.385336947  0 0 0 0.05 0" type="matrix" in="shadowBlurOuter1"></feColorMatrix>
        </filter>
        <ellipse id="path-39" cx="16.5" cy="16.8926049" rx="16.5" ry="17"></ellipse>
        <filter x="-25.8%" y="-19.1%" width="151.5%" height="150.0%" filterUnits="objectBoundingBox" id="filter-40">
            <feOffset dx="0" dy="2" in="SourceAlpha" result="shadowOffsetOuter1"></feOffset>
            <feGaussianBlur stdDeviation="2.5" in="shadowOffsetOuter1" result="shadowBlurOuter1"></feGaussianBlur>
            <feColorMatrix values="0 0 0 0 0.0671040332   0 0 0 0 0.120218191   0 0 0 0 0.385336947  0 0 0 0.05 0" type="matrix" in="shadowBlurOuter1"></feColorMatrix>
        </filter>
        <ellipse id="path-41" cx="16.5" cy="16.8926049" rx="16.5" ry="17"></ellipse>
        <filter x="-25.8%" y="-19.1%" width="151.5%" height="150.0%" filterUnits="objectBoundingBox" id="filter-42">
            <feOffset dx="0" dy="2" in="SourceAlpha" result="shadowOffsetOuter1"></feOffset>
            <feGaussianBlur stdDeviation="2.5" in="shadowOffsetOuter1" result="shadowBlurOuter1"></feGaussianBlur>
            <feColorMatrix values="0 0 0 0 0.0671040332   0 0 0 0 0.120218191   0 0 0 0 0.385336947  0 0 0 0.05 0" type="matrix" in="shadowBlurOuter1"></feColorMatrix>
        </filter>
        <linearGradient x1="16.3325554%" y1="85.3404255%" x2="83.6674446%" y2="14.6808511%" id="linearGradient-43">
            <stop stop-color="#AB4D9C" offset="0%"></stop>
            <stop stop-color="#B259A2" offset="37%"></stop>
            <stop stop-color="#BD6FAC" offset="84%"></stop>
        </linearGradient>
        <ellipse id="path-44" cx="16.5" cy="17" rx="16.5" ry="17"></ellipse>
        <filter x="-25.8%" y="-19.1%" width="151.5%" height="150.0%" filterUnits="objectBoundingBox" id="filter-45">
            <feOffset dx="0" dy="2" in="SourceAlpha" result="shadowOffsetOuter1"></feOffset>
            <feGaussianBlur stdDeviation="2.5" in="shadowOffsetOuter1" result="shadowBlurOuter1"></feGaussianBlur>
            <feColorMatrix values="0 0 0 0 0.0671040332   0 0 0 0 0.120218191   0 0 0 0 0.385336947  0 0 0 0.05 0" type="matrix" in="shadowBlurOuter1"></feColorMatrix>
        </filter>
        <linearGradient x1="81.7632374%" y1="42.6886466%" x2="6.89134148%" y2="64.3561148%" id="linearGradient-46">
            <stop stop-color="#907CFF" offset="0%"></stop>
            <stop stop-color="#6EBCFF" offset="100%"></stop>
        </linearGradient>
        <ellipse id="path-47" cx="17" cy="16" rx="17" ry="16"></ellipse>
        <filter x="-25.0%" y="-20.3%" width="150.0%" height="153.1%" filterUnits="objectBoundingBox" id="filter-48">
            <feOffset dx="0" dy="2" in="SourceAlpha" result="shadowOffsetOuter1"></feOffset>
            <feGaussianBlur stdDeviation="2.5" in="shadowOffsetOuter1" result="shadowBlurOuter1"></feGaussianBlur>
            <feColorMatrix values="0 0 0 0 0.0671040332   0 0 0 0 0.120218191   0 0 0 0 0.385336947  0 0 0 0.05 0" type="matrix" in="shadowBlurOuter1"></feColorMatrix>
        </filter>
    </defs>
    <g id="Page-1" stroke="none" stroke-width="1" fill="none" fill-rule="evenodd">
        <g id="Signin-Page-Design" transform="translate(-388.000000, -284.000000)">
            <g id="3" transform="translate(388.000000, 266.000000)">
                <ellipse id="Oval" fill="url(#linearGradient-1)" opacity="0.15" transform="translate(255.970253, 115.827243) rotate(-65.000000) translate(-255.970253, -115.827243) " cx="255.970253" cy="115.827243" rx="87" ry="86.5896226"></ellipse>
                <circle id="Oval-Copy-2" fill="url(#linearGradient-2)" opacity="0.15" transform="translate(409.000000, 41.107395) rotate(-144.000000) translate(-409.000000, -41.107395) " cx="409" cy="41.1073951" r="19"></circle>
                <g id="Group-21" transform="translate(0.000000, 19.000000)">
                    <g id="Group-19">
                        <path d="M5,0 L102.95539,0 C105.716814,-7.86517626e-15 107.95539,2.23857625 107.95539,5 L107.95539,232.131148 L0,232.131148 L0,5 C-3.38176876e-16,2.23857625 2.23857625,5.07265313e-16 5,0 Z" id="Rectangle" fill="url(#linearGradient-3)"></path>
                        <path d="M96.2713755,50.1639344 L175.579926,50.1639344 C178.341349,50.1639344 180.579926,52.4025107 180.579926,55.1639344 L180.579926,232.131148 L91.2713755,232.131148 L91.2713755,55.1639344 C91.2713755,52.4025107 93.5099517,50.1639344 96.2713755,50.1639344 Z" id="Rectangle-Copy-191" fill="url(#linearGradient-4)" opacity="0.81"></path>
                        <path d="M166.933086,76.7213115 L225.63197,76.7213115 C228.393394,76.7213115 230.63197,78.9598877 230.63197,81.7213115 L230.63197,231.147541 L161.933086,231.147541 L161.933086,81.7213115 C161.933086,78.9598877 164.171662,76.7213115 166.933086,76.7213115 Z" id="Rectangle-Copy-192" fill="url(#linearGradient-5)" opacity="0.6"></path>
                        <path d="M208.152416,152.459016 L259,152.459016 C261.761424,152.459016 264,154.697593 264,157.459016 L264,231.147541 L203.152416,231.147541 L203.152416,157.459016 C203.152416,154.697593 205.390993,152.459016 208.152416,152.459016 Z" id="Rectangle-Copy-195" fill="url(#linearGradient-6)" opacity="0.75"></path>
                        <rect id="Rectangle" fill="#FFFFFF" opacity="0.5" x="25.5167286" y="24.5901639" width="18.6468401" height="18.6885246" rx="5"></rect>
                        <rect id="Rectangle-Copy-201" fill="url(#linearGradient-7)" opacity="0.5" x="116.788104" y="73.7704918" width="36.3122677" height="9.83606557" rx="4.91803279"></rect>
                        <rect id="Rectangle-Copy-202" fill="url(#linearGradient-7)" opacity="0.5" x="116.788104" y="92.4590164" width="36.3122677" height="9.83606557" rx="4.91803279"></rect>
                        <rect id="Rectangle-Copy-203" fill="url(#linearGradient-7)" opacity="0.276134673" x="116.788104" y="111.147541" width="36.3122677" height="9.83606557" rx="4.91803279"></rect>
                        <rect id="Rectangle-Copy-204" fill="url(#linearGradient-7)" opacity="0.266415551" x="116.788104" y="129.836066" width="36.3122677" height="9.83606557" rx="4.91803279"></rect>
                        <rect id="Rectangle-Copy-197" fill="#FFFFFF" opacity="0.5" x="25.5167286" y="61.9672131" width="18.6468401" height="18.6885246" rx="5"></rect>
                        <rect id="Rectangle-Copy-196" fill="#FFFFFF" opacity="0.5" x="58.8847584" y="24.5901639" width="18.6468401" height="18.6885246" rx="5"></rect>
                        <rect id="Rectangle-Copy-198" fill="#FFFFFF" opacity="0.182942708" x="58.8847584" y="61.9672131" width="18.6468401" height="18.6885246" rx="5"></rect>
                        <rect id="Rectangle-Copy-200" fill="#FFFFFF" opacity="0.187174479" x="25.5167286" y="98.3606557" width="18.6468401" height="18.6885246" rx="5"></rect>
                        <rect id="Rectangle-Copy-199" fill="#FFFFFF" opacity="0.187174479" x="58.8847584" y="98.3606557" width="18.6468401" height="18.6885246" rx="5"></rect>
                        <path d="M136.416357,226.173209 C167.552566,199.094057 174.965949,178.129217 158.656506,163.278689 C134.93368,137.632525 137.161921,116.32105 165.34123,99.3442623 C166.090907,99.410124 166.090907,99.9472868 165.34123,100.955751 C164.216714,102.468447 141.678121,128.552824 189.051377,151.483787 C220.633548,166.771096 234.22475,192.014205 229.824985,227.213115 L136.416357,226.173209 Z" id="Path-10" fill="url(#linearGradient-8)" opacity="0.14"></path>
                        <g id="Group-44" transform="translate(87.345725, 145.573770)">
                            <path d="M96.4649281,88.1311475 C96.4649281,90.4488385 78.1388997,92.3278689 55.5325127,92.3278689 C32.9261257,92.3278689 14.6000972,90.4488385 14.6000972,88.1311475 C14.6000972,85.8134566 32.9261257,83.9344262 55.5325127,83.9344262 C78.1388997,83.9344262 96.4649281,85.8134566 96.4649281,88.1311475" id="Fill-1" fill="#DCEAF8"></path>
                            <path d="M18.2501215,85.2465176 C18.2501215,85.9709399 14.8648052,86.557377 10.6889822,86.557377 C6.51315932,86.557377 3.12859226,85.9709399 3.12859226,85.2465176 C3.12859226,84.5220953 6.51315932,83.9344262 10.6889822,83.9344262 C14.8648052,83.9344262 18.2501215,84.5220953 18.2501215,85.2465176" id="Fill-3" fill="#DCEAF8"></path>
                            <g id="Group-9" transform="translate(87.600583, 79.213115)">
                                <mask id="mask-10" fill="white">
                                    <use xlink:href="#path-9"></use>
                                </mask>
                                <g id="Clip-8"></g>
                                <path d="M0.459146986,2.86926164 C0.459146986,2.86926164 7.06558669,5.45386492 10.6131496,5.57735344 C10.6131496,5.57735344 14.7727173,5.20804197 4.00728347,0.284658361 C4.00728347,0.284658361 2.86013297,1.38047475 0.336975458,1.14619279 L0.459146986,2.86926164 Z" id="Fill-7" fill="url(#linearGradient-11)" mask="url(#mask-10)"></path>
                            </g>
                            <path d="M69.2850896,87.4574702 C69.2850896,87.4574702 76.3881969,88.579317 79.9304412,87.9276387 C79.9304412,87.9276387 84.5368714,87.0294587 72.8081331,84.4965207 C72.8081331,84.4965207 71.0602846,84.6850565 68.3075977,83.9344262 L69.2850896,87.4574702 Z" id="Fill-10" fill="url(#linearGradient-12)"></path>
                            <path d="M68.8290298,61.7972206 C68.8290298,61.7972206 75.5242604,69.4006701 73.936513,74.9246961 C72.3481928,80.4487221 68.8290298,84.1310224 68.8290298,84.1310224 C68.8290298,84.1310224 71.3704566,85.3586477 73.6919357,84.8677127 C73.6919357,84.8677127 81.0447183,78.8015287 80.2388162,64.6490178 C80.2388162,64.6490178 76.4240984,60.9529045 71.7593745,60.3278689 L70.7598726,61.9123285 L68.8290298,61.7972206 Z" id="Fill-12" fill="url(#linearGradient-13)"></path>
                            <path d="M70.7412081,61.6977999 C70.7412081,61.6977999 67.3375614,60.8613567 59.9221483,63.6099102 C52.5073051,66.3579035 34.8883609,71.1378992 33.0007391,56.6791406 C33.0007391,56.6791406 33.5444562,50.1069266 32.3287867,46.1639344 L41.6882452,52.4969245 C41.6882452,52.4969245 51.5344275,54.8869223 59.4359944,52.4969245 C67.3375614,50.1074869 70.1336583,50.2262585 72.1996696,50.9433699 C72.1996696,50.9433699 74.7529745,56.440477 70.7412081,61.6977999" id="Fill-14" fill="url(#linearGradient-14)"></path>
                            <path d="M48.0987739,4.18049509 C48.0987739,4.18049509 50.1594099,11.3403373 48.0987739,15.587653 C48.0987739,15.587653 48.7080895,25.2958847 38.7582103,23.7181477 C38.7582103,23.7181477 39.8499719,28.3296004 41.5487734,28.572548 C41.5487734,28.572548 27.9583615,32.6986744 22.1337367,22.262169 C22.1337367,22.262169 20.4349352,18.6213687 22.1337367,16.0729793 C23.8325382,13.5245898 26.0171992,13.8887267 26.0171992,13.8887267 C26.0171992,13.8887267 24.9248687,8.54900019 27.8371811,5.02995825 C30.7489245,1.5109163 44.8200756,-3.82881023 48.0987739,4.18049509" id="Fill-16" fill="url(#linearGradient-15)"></path>
                            <path d="M46.2145547,6.81967213 C46.2145547,6.81967213 50.9846152,19.7516125 44.8064188,22.8530458 C40.935145,24.7961399 38.9406525,23.8245929 38.9406525,23.8245929 C38.9406525,23.8245929 38.1194232,27.833221 39.7624318,31.1129042 C39.7624318,31.1129042 37.1810326,34.0275453 34.3653108,29.2905416 C34.3653108,29.2905416 35.890608,24.7961399 35.4208627,21.5170263 C35.4208627,21.5170263 34.6001835,20.3023077 34.3653108,18.6018156 C34.3653108,18.6018156 32.7228522,15.807906 33.6612428,14.2292844 C34.6001835,12.6500934 36.3598033,13.3790384 36.594676,14.5931875 C36.594676,14.5931875 43.0467989,15.565304 46.2145547,6.81967213" id="Fill-18" fill="url(#linearGradient-16)"></path>
                            <polygon id="Fill-20" fill="url(#linearGradient-17)" points="45.3645878 52.9836066 64.2497641 50.9514143 70.3933259 32 68.6036969 32 63.1407382 49.0470149 45.3645878 51.1030619"></polygon>
                            <path d="M34.2534227,28.852459 C34.2534227,28.852459 29.4865624,29.3499297 29.7306935,34.1947351 C29.9753977,39.0407055 31.319838,41.7738817 31.319838,41.7738817 C31.319838,41.7738817 34.2534227,39.4135173 38.2873166,39.4135173 C38.2873166,39.4135173 39.7538225,49.104293 41.9538678,52.4590164 C41.9538678,52.4590164 41.4650325,45.998305 41.9538678,42.6435817 C41.9538678,42.6435817 45.7430575,40.7801054 44.6427483,37.3013056 C43.5430122,33.8225058 39.8764611,30.7165178 39.8764611,30.7165178 C39.8764611,30.7165178 37.1560613,33.4526067 34.2534227,28.852459" id="Fill-22" fill="url(#linearGradient-18)"></path>
                            <path d="M45.073243,58.3691588 C45.073243,58.3691588 37.3227217,62.7181471 31.8073547,42.1802506 C31.8073547,42.1802506 34.3252763,39.6432463 38.6421148,39.8851085 C38.6421148,39.8851085 40.5602101,50.0331257 42.2388245,52.57013 C43.9174389,55.1071343 49.6728489,53.8989561 50.3924157,51.9663241 C51.1114203,50.0331257 49.7931514,47.0129634 51.9507275,45.9254331 C54.1094279,44.8384692 56.2675661,44.596607 56.7470899,45.8047852 C57.2266137,47.0129634 55.6683018,48.7105302 54.4686491,49.311504 C53.2701207,49.9124778 53.7496445,52.8114258 52.7905968,53.7783082 C51.8309871,54.7446242 47.5259539,58.0315712 45.073243,58.3691588" id="Fill-24" fill="url(#linearGradient-19)"></path>
                            <path d="M71.43619,60.2577452 C71.43619,60.2577452 77.2349968,60.9078351 81.7485212,66.84654 C86.2620456,72.785245 87.6871053,80.2107665 87.6871053,80.2107665 C87.6871053,80.2107665 90.1813774,80.5766204 91.2505898,79.3586294 C91.2505898,79.3586294 91.3692056,57.8657114 72.2464525,51.9344262 C72.2464525,51.9344262 73.4771606,55.6431917 71.43619,60.2577452" id="Fill-26" fill="url(#linearGradient-20)"></path>
                            <g id="Fill-28">
                                <use fill="#FFFFFF" xlink:href="#path-22"></use>
                                <use fill="url(#linearGradient-21)" xlink:href="#path-22"></use>
                            </g>
                            <polygon id="Fill-30" fill="url(#linearGradient-23)" points="29.7216265 88.1311475 33.9381356 88.1311475 37.5431071 80.7868852 33.632085 80.7868852"></polygon>
                            <polygon id="Fill-32" fill="url(#linearGradient-24)" points="64.1361414 88.1311475 59.9574235 88.1311475 55.7932287 80.1356816 59.3943775 79.7377049"></polygon>
                            <path d="M46.9288839,14.1639344 C46.9288839,14.1639344 47.8233381,15.5734483 49.0154778,16.1370423 C50.2076176,16.7011651 49.0902486,17.941495 48.2698664,17.8288819 L47.4508818,17.7157402 L46.9288839,14.1639344 Z" id="Fill-34" fill="url(#linearGradient-25)"></path>
                            <path d="M12.5031212,84.7712959 C12.5031212,84.7712959 15.8542048,79.1839944 12.7819154,76.1744329 C10.5232384,74.4947444 7.94744701,77.4343427 6.52404178,75.7546542 C5.10063656,74.0749656 11.6078699,68.5455845 9.50636174,65.7453389 C7.40540897,62.9456667 3.20294806,62.7357773 0.762666141,65.1156707 C-1.67761577,67.495564 2.25382612,80.8395974 5.30390083,84.7712959 C5.30390083,84.7712959 9.33142118,85.2489949 12.5031212,84.7712959" id="Fill-40" fill="url(#linearGradient-26)"></path>
                            <path d="M8.86434474,84.9836066 C7.62057854,83.5700641 6.55218068,81.9837491 5.6532156,80.2947969 C4.75209215,78.6086957 4.06248989,76.7726301 3.76463352,74.838489 C3.60329465,73.8725588 3.63189318,72.8815396 3.73009944,71.9064861 C3.88388399,70.9513899 4.03335177,69.991732 4.29937204,69.0611547 C4.55352123,68.1294369 4.86216951,67.2114041 5.26632607,66.3389879 C5.68451211,65.4819672 6.16637033,64.6249465 6.86892287,64 C6.22464658,64.684248 5.78541635,65.5435495 5.42442737,66.4171062 C5.05750285,67.2923735 4.78230946,68.2075552 4.56323394,69.1358517 C4.34253964,70.0641483 4.18605712,71.0084105 4.05007921,71.9549537 C3.96752119,72.8946543 3.94971456,73.8463293 4.11537019,74.7820385 C4.37545492,76.6631504 5.05372569,78.4644334 5.89279573,80.1585175 C6.30018987,81.0143977 6.77719174,81.8332145 7.27146065,82.6389166 C7.7614128,83.4491803 8.29777012,84.2275125 8.86434474,84.9836066" id="Fill-42" fill="url(#linearGradient-27)"></path>
                        </g>
                    </g>
                    <g id="Group-19" opacity="0.5">
                        <path d="M5,0 L102.95539,0 C105.716814,-7.86517626e-15 107.95539,2.23857625 107.95539,5 L107.95539,232.131148 L0,232.131148 L0,5 C-3.38176876e-16,2.23857625 2.23857625,5.07265313e-16 5,0 Z" id="Rectangle" fill="url(#linearGradient-3)"></path>
                        <path d="M96.2713755,50.1639344 L175.579926,50.1639344 C178.341349,50.1639344 180.579926,52.4025107 180.579926,55.1639344 L180.579926,232.131148 L91.2713755,232.131148 L91.2713755,55.1639344 C91.2713755,52.4025107 93.5099517,50.1639344 96.2713755,50.1639344 Z" id="Rectangle-Copy-191" fill="url(#linearGradient-4)" opacity="0.81"></path>
                        <path d="M166.933086,76.7213115 L225.63197,76.7213115 C228.393394,76.7213115 230.63197,78.9598877 230.63197,81.7213115 L230.63197,231.147541 L161.933086,231.147541 L161.933086,81.7213115 C161.933086,78.9598877 164.171662,76.7213115 166.933086,76.7213115 Z" id="Rectangle-Copy-192" fill="url(#linearGradient-5)" opacity="0.6"></path>
                        <path d="M208.152416,152.459016 L259,152.459016 C261.761424,152.459016 264,154.697593 264,157.459016 L264,231.147541 L203.152416,231.147541 L203.152416,157.459016 C203.152416,154.697593 205.390993,152.459016 208.152416,152.459016 Z" id="Rectangle-Copy-195" fill="url(#linearGradient-6)" opacity="0.75"></path>
                        <rect id="Rectangle" fill="#FFFFFF" x="25.5167286" y="24.5901639" width="18.6468401" height="18.6885246" rx="5"></rect>
                        <rect id="Rectangle-Copy-201" fill="url(#linearGradient-7)" x="116.788104" y="73.7704918" width="36.3122677" height="9.83606557" rx="4.91803279"></rect>
                        <rect id="Rectangle-Copy-202" fill="url(#linearGradient-7)" x="116.788104" y="92.4590164" width="36.3122677" height="9.83606557" rx="4.91803279"></rect>
                        <rect id="Rectangle-Copy-203" fill="url(#linearGradient-7)" opacity="0.276134673" x="116.788104" y="111.147541" width="36.3122677" height="9.83606557" rx="4.91803279"></rect>
                        <rect id="Rectangle-Copy-204" fill="url(#linearGradient-7)" opacity="0.266415551" x="116.788104" y="129.836066" width="36.3122677" height="9.83606557" rx="4.91803279"></rect>
                        <rect id="Rectangle-Copy-197" fill="#FFFFFF" x="25.5167286" y="61.9672131" width="18.6468401" height="18.6885246" rx="5"></rect>
                        <rect id="Rectangle-Copy-196" fill="#FFFFFF" x="58.8847584" y="24.5901639" width="18.6468401" height="18.6885246" rx="5"></rect>
                        <rect id="Rectangle-Copy-198" fill="#FFFFFF" opacity="0.182942708" x="58.8847584" y="61.9672131" width="18.6468401" height="18.6885246" rx="5"></rect>
                        <rect id="Rectangle-Copy-200" fill="#FFFFFF" opacity="0.187174479" x="25.5167286" y="98.3606557" width="18.6468401" height="18.6885246" rx="5"></rect>
                        <rect id="Rectangle-Copy-199" fill="#FFFFFF" opacity="0.187174479" x="58.8847584" y="98.3606557" width="18.6468401" height="18.6885246" rx="5"></rect>
                        <path d="M136.416357,226.173209 C167.552566,199.094057 174.965949,178.129217 158.656506,163.278689 C134.93368,137.632525 137.161921,116.32105 165.34123,99.3442623 C166.090907,99.410124 166.090907,99.9472868 165.34123,100.955751 C164.216714,102.468447 141.678121,128.552824 189.051377,151.483787 C220.633548,166.771096 234.22475,192.014205 229.824985,227.213115 L136.416357,226.173209 Z" id="Path-10" fill="url(#linearGradient-8)" opacity="0.14"></path>
                        <g id="Group-44" transform="translate(87.345725, 145.573770)">
                            <path d="M96.4649281,88.1311475 C96.4649281,90.4488385 78.1388997,92.3278689 55.5325127,92.3278689 C32.9261257,92.3278689 14.6000972,90.4488385 14.6000972,88.1311475 C14.6000972,85.8134566 32.9261257,83.9344262 55.5325127,83.9344262 C78.1388997,83.9344262 96.4649281,85.8134566 96.4649281,88.1311475" id="Fill-1" fill="#DCEAF8"></path>
                            <path d="M18.2501215,85.2465176 C18.2501215,85.9709399 14.8648052,86.557377 10.6889822,86.557377 C6.51315932,86.557377 3.12859226,85.9709399 3.12859226,85.2465176 C3.12859226,84.5220953 6.51315932,83.9344262 10.6889822,83.9344262 C14.8648052,83.9344262 18.2501215,84.5220953 18.2501215,85.2465176" id="Fill-3" fill="#DCEAF8"></path>
                            <g id="Group-9" transform="translate(87.600583, 79.213115)">
                                <mask id="mask-29" fill="white">
                                    <use xlink:href="#path-28"></use>
                                </mask>
                                <g id="Clip-8"></g>
                                <path d="M0.459146986,2.86926164 C0.459146986,2.86926164 7.06558669,5.45386492 10.6131496,5.57735344 C10.6131496,5.57735344 14.7727173,5.20804197 4.00728347,0.284658361 C4.00728347,0.284658361 2.86013297,1.38047475 0.336975458,1.14619279 L0.459146986,2.86926164 Z" id="Fill-7" fill="url(#linearGradient-11)" mask="url(#mask-29)"></path>
                            </g>
                            <path d="M69.2850896,87.4574702 C69.2850896,87.4574702 76.3881969,88.579317 79.9304412,87.9276387 C79.9304412,87.9276387 84.5368714,87.0294587 72.8081331,84.4965207 C72.8081331,84.4965207 71.0602846,84.6850565 68.3075977,83.9344262 L69.2850896,87.4574702 Z" id="Fill-10" fill="url(#linearGradient-12)"></path>
                            <path d="M68.8290298,61.7972206 C68.8290298,61.7972206 75.5242604,69.4006701 73.936513,74.9246961 C72.3481928,80.4487221 68.8290298,84.1310224 68.8290298,84.1310224 C68.8290298,84.1310224 71.3704566,85.3586477 73.6919357,84.8677127 C73.6919357,84.8677127 81.0447183,78.8015287 80.2388162,64.6490178 C80.2388162,64.6490178 76.4240984,60.9529045 71.7593745,60.3278689 L70.7598726,61.9123285 L68.8290298,61.7972206 Z" id="Fill-12" fill="url(#linearGradient-13)"></path>
                            <path d="M70.7412081,61.6977999 C70.7412081,61.6977999 67.3375614,60.8613567 59.9221483,63.6099102 C52.5073051,66.3579035 34.8883609,71.1378992 33.0007391,56.6791406 C33.0007391,56.6791406 33.5444562,50.1069266 32.3287867,46.1639344 L41.6882452,52.4969245 C41.6882452,52.4969245 51.5344275,54.8869223 59.4359944,52.4969245 C67.3375614,50.1074869 70.1336583,50.2262585 72.1996696,50.9433699 C72.1996696,50.9433699 74.7529745,56.440477 70.7412081,61.6977999" id="Fill-14" fill="url(#linearGradient-14)"></path>
                            <path d="M48.0987739,4.18049509 C48.0987739,4.18049509 50.1594099,11.3403373 48.0987739,15.587653 C48.0987739,15.587653 48.7080895,25.2958847 38.7582103,23.7181477 C38.7582103,23.7181477 39.8499719,28.3296004 41.5487734,28.572548 C41.5487734,28.572548 27.9583615,32.6986744 22.1337367,22.262169 C22.1337367,22.262169 20.4349352,18.6213687 22.1337367,16.0729793 C23.8325382,13.5245898 26.0171992,13.8887267 26.0171992,13.8887267 C26.0171992,13.8887267 24.9248687,8.54900019 27.8371811,5.02995825 C30.7489245,1.5109163 44.8200756,-3.82881023 48.0987739,4.18049509" id="Fill-16" fill="url(#linearGradient-15)"></path>
                            <path d="M46.2145547,6.81967213 C46.2145547,6.81967213 50.9846152,19.7516125 44.8064188,22.8530458 C40.935145,24.7961399 38.9406525,23.8245929 38.9406525,23.8245929 C38.9406525,23.8245929 38.1194232,27.833221 39.7624318,31.1129042 C39.7624318,31.1129042 37.1810326,34.0275453 34.3653108,29.2905416 C34.3653108,29.2905416 35.890608,24.7961399 35.4208627,21.5170263 C35.4208627,21.5170263 34.6001835,20.3023077 34.3653108,18.6018156 C34.3653108,18.6018156 32.7228522,15.807906 33.6612428,14.2292844 C34.6001835,12.6500934 36.3598033,13.3790384 36.594676,14.5931875 C36.594676,14.5931875 43.0467989,15.565304 46.2145547,6.81967213" id="Fill-18" fill="url(#linearGradient-16)"></path>
                            <polygon id="Fill-20" fill="url(#linearGradient-17)" points="45.3645878 52.9836066 64.2497641 50.9514143 70.3933259 32 68.6036969 32 63.1407382 49.0470149 45.3645878 51.1030619"></polygon>
                            <path d="M34.2534227,28.852459 C34.2534227,28.852459 29.4865624,29.3499297 29.7306935,34.1947351 C29.9753977,39.0407055 31.319838,41.7738817 31.319838,41.7738817 C31.319838,41.7738817 34.2534227,39.4135173 38.2873166,39.4135173 C38.2873166,39.4135173 39.7538225,49.104293 41.9538678,52.4590164 C41.9538678,52.4590164 41.4650325,45.998305 41.9538678,42.6435817 C41.9538678,42.6435817 45.7430575,40.7801054 44.6427483,37.3013056 C43.5430122,33.8225058 39.8764611,30.7165178 39.8764611,30.7165178 C39.8764611,30.7165178 37.1560613,33.4526067 34.2534227,28.852459" id="Fill-22" fill="url(#linearGradient-18)"></path>
                            <path d="M45.073243,58.3691588 C45.073243,58.3691588 37.3227217,62.7181471 31.8073547,42.1802506 C31.8073547,42.1802506 34.3252763,39.6432463 38.6421148,39.8851085 C38.6421148,39.8851085 40.5602101,50.0331257 42.2388245,52.57013 C43.9174389,55.1071343 49.6728489,53.8989561 50.3924157,51.9663241 C51.1114203,50.0331257 49.7931514,47.0129634 51.9507275,45.9254331 C54.1094279,44.8384692 56.2675661,44.596607 56.7470899,45.8047852 C57.2266137,47.0129634 55.6683018,48.7105302 54.4686491,49.311504 C53.2701207,49.9124778 53.7496445,52.8114258 52.7905968,53.7783082 C51.8309871,54.7446242 47.5259539,58.0315712 45.073243,58.3691588" id="Fill-24" fill="url(#linearGradient-19)"></path>
                            <path d="M71.43619,60.2577452 C71.43619,60.2577452 77.2349968,60.9078351 81.7485212,66.84654 C86.2620456,72.785245 87.6871053,80.2107665 87.6871053,80.2107665 C87.6871053,80.2107665 90.1813774,80.5766204 91.2505898,79.3586294 C91.2505898,79.3586294 91.3692056,57.8657114 72.2464525,51.9344262 C72.2464525,51.9344262 73.4771606,55.6431917 71.43619,60.2577452" id="Fill-26" fill="url(#linearGradient-20)"></path>
                            <g id="Fill-28">
                                <use fill="#FFFFFF" xlink:href="#path-30"></use>
                                <use fill="url(#linearGradient-21)" xlink:href="#path-30"></use>
                            </g>
                            <polygon id="Fill-30" fill="url(#linearGradient-23)" points="29.7216265 88.1311475 33.9381356 88.1311475 37.5431071 80.7868852 33.632085 80.7868852"></polygon>
                            <polygon id="Fill-32" fill="url(#linearGradient-24)" points="64.1361414 88.1311475 59.9574235 88.1311475 55.7932287 80.1356816 59.3943775 79.7377049"></polygon>
                            <path d="M46.9288839,14.1639344 C46.9288839,14.1639344 47.8233381,15.5734483 49.0154778,16.1370423 C50.2076176,16.7011651 49.0902486,17.941495 48.2698664,17.8288819 L47.4508818,17.7157402 L46.9288839,14.1639344 Z" id="Fill-34" fill="url(#linearGradient-25)"></path>
                            <path d="M12.5031212,84.7712959 C12.5031212,84.7712959 15.8542048,79.1839944 12.7819154,76.1744329 C10.5232384,74.4947444 7.94744701,77.4343427 6.52404178,75.7546542 C5.10063656,74.0749656 11.6078699,68.5455845 9.50636174,65.7453389 C7.40540897,62.9456667 3.20294806,62.7357773 0.762666141,65.1156707 C-1.67761577,67.495564 2.25382612,80.8395974 5.30390083,84.7712959 C5.30390083,84.7712959 9.33142118,85.2489949 12.5031212,84.7712959" id="Fill-40" fill="url(#linearGradient-26)"></path>
                            <path d="M8.86434474,84.9836066 C7.62057854,83.5700641 6.55218068,81.9837491 5.6532156,80.2947969 C4.75209215,78.6086957 4.06248989,76.7726301 3.76463352,74.838489 C3.60329465,73.8725588 3.63189318,72.8815396 3.73009944,71.9064861 C3.88388399,70.9513899 4.03335177,69.991732 4.29937204,69.0611547 C4.55352123,68.1294369 4.86216951,67.2114041 5.26632607,66.3389879 C5.68451211,65.4819672 6.16637033,64.6249465 6.86892287,64 C6.22464658,64.684248 5.78541635,65.5435495 5.42442737,66.4171062 C5.05750285,67.2923735 4.78230946,68.2075552 4.56323394,69.1358517 C4.34253964,70.0641483 4.18605712,71.0084105 4.05007921,71.9549537 C3.96752119,72.8946543 3.94971456,73.8463293 4.11537019,74.7820385 C4.37545492,76.6631504 5.05372569,78.4644334 5.89279573,80.1585175 C6.30018987,81.0143977 6.77719174,81.8332145 7.27146065,82.6389166 C7.7614128,83.4491803 8.29777012,84.2275125 8.86434474,84.9836066" id="Fill-42" fill="url(#linearGradient-27)"></path>
                        </g>
                    </g>
                </g>
                <g id="Group-18" transform="translate(164.000000, 96.000000)">
                    <g id="Oval-6-Copy-7">
                        <use fill="black" fill-opacity="1" filter="url(#filter-32)" xlink:href="#path-31"></use>
                        <use fill="#FFFFFF" fill-rule="evenodd" xlink:href="#path-31"></use>
                    </g>
                    <g id="Icon-Copy" transform="translate(11.000000, 9.000000)" fill="#F1634C" fill-rule="nonzero">
                        <path d="M0.975849057,0.754545455 C0.975849057,0.754545455 8.40226415,0.204545455 8.40226415,6.64090909 C8.40226415,13.0772727 6.43924528,14.3681818 4.71849057,14.775 C4.71849057,14.775 11.8754717,16.5045455 11.8754717,7.45454545 C11.8754717,-1.59545455 2.74867925,-0.293181818 0.975849057,0.754545455 Z" id="Shape"></path>
                        <path d="M7.01886792,11.6977273 C7.01886792,11.6977273 6.30339623,14.1977273 4.13660377,14.5136364 C1.96981132,14.8295455 1.56679245,13.65 0.0611320755,13.7318182 C0.0264370356,13.4077999 0.123017319,13.0833894 0.329133881,12.8316073 C0.535250444,12.5798253 0.833583218,12.4218291 1.15698113,12.3931818 C2.37735849,12.2272727 4.66415094,12.55 6.18339623,11.5863636 C6.18339623,11.5863636 7.0890566,11.1136364 7.25886792,10.8840909 L7.01886792,11.6977273 Z" id="Shape"></path>
                        <path d="M0.86490566,1.20454545 L0.86490566,4.30227273 L0.86490566,4.30227273 L0.86490566,12.0113636 C0.939496374,11.9920845 1.01508071,11.9769104 1.09132075,11.9659091 C1.5192597,11.9206772 1.94931983,11.8986755 2.37962264,11.9 C2.83245283,11.9 3.31698113,11.8818182 3.80603774,11.8363636 L3.80603774,8.2 C3.80603774,6.99090909 3.7290566,5.75681818 3.80603774,4.55 C3.88819541,3.82118704 4.36595158,3.19810148 5.04679245,2.93181818 C5.59027946,2.72959722 6.19384134,2.76927077 6.70641509,3.04090909 C5.00462438,1.81821408 2.95749431,1.1746689 0.86490566,1.20454545 Z" id="Shape"></path>
                    </g>
                </g>
                <g id="Group-24" transform="translate(227.000000, 190.000000)">
                    <g id="Oval-6-Copy-8">
                        <use fill="black" fill-opacity="1" filter="url(#filter-34)" xlink:href="#path-33"></use>
                        <use fill="#FFFFFF" fill-rule="evenodd" xlink:href="#path-33"></use>
                    </g>
                    <g id="Icon-Copy-2" transform="translate(9.000000, 9.892605)" fill-rule="nonzero">
                        <path d="M10.8485393,6.60028571 L10.8485393,8.56328571 C10.8485393,9.69152456 9.85249866,10.6061429 8.62382022,10.6061429 C7.39514179,10.6061429 6.39910112,9.69152456 6.39910112,8.56328571 L6.39910112,6.60028571 L3.94786517,6.60028571 L3.94786517,8.56328571 C3.91263437,10.1189027 4.79627354,11.5703986 6.25781972,12.357696 C7.71936591,13.1449935 9.53029702,13.1449935 10.9918432,12.357696 C12.4533894,11.5703986 13.3370285,10.1189027 13.3017978,8.56328571 L13.3017978,6.60028571 L10.8485393,6.60028571 Z" id="Shape" fill="#23B89A"></path>
                        <polygon id="Shape" fill="#94A4A4" points="6.39707865 0.078 0.12741573 0.078 0.863595506 2.32885714 6.39707865 2.32885714"></polygon>
                        <path d="M14.7862921,0.078 L10.8485393,0.078 L10.8485393,2.32885714 L14.7862921,2.32885714 C15.1213863,2.32885714 15.3930337,2.5782985 15.3930337,2.886 C15.3930337,3.1937015 15.1213863,3.44314286 14.7862921,3.44314286 L10.8485393,3.44314286 L10.8485393,5.694 L14.7862921,5.694 C16.4774004,5.694 17.8483146,4.43515264 17.8483146,2.88228571 C17.8483146,1.32941879 16.4774004,0.0705714286 14.7862921,0.0705714286 L14.7862921,0.078 Z" id="Shape" fill="#94A4A4"></path>
                        <polygon id="Shape" fill="#94A4A4" points="6.39707865 3.45057143 1.35505618 3.45057143 2.09123596 5.69957143 6.39707865 5.69957143"></polygon>
                    </g>
                </g>
                <g id="Group-23" transform="translate(186.000000, 31.000000)">
                    <g id="Oval-6-Copy-9">
                        <use fill="black" fill-opacity="1" filter="url(#filter-36)" xlink:href="#path-35"></use>
                        <use fill="#FFFFFF" fill-rule="evenodd" xlink:href="#path-35"></use>
                    </g>
                    <g id="Icon-Copy-3" transform="translate(10.000000, 10.000000)" fill-rule="nonzero">
                        <path d="M12.0394737,1.53214286 C11.4278389,1.03153657 10.7409701,0.634486164 10.0052632,0.35625 L6.25263158,5.71339286 L6.25263158,6.34285714 L6.25263158,6.34285714 L6.25263158,7.62321429 L6.25263158,13.7196429 C6.24970785,14.3714343 6.76492616,14.9030367 7.40526316,14.9089286 L7.42894737,14.9089286 C8.06928437,14.9030367 8.58450268,14.3714343 8.58157895,13.7196429 L8.58157895,6.42857143 L8.87631579,6.00803571 L10.7184211,3.39375 C11.8708056,4.37760276 12.5394355,5.82778605 12.5465326,7.35871908 C12.5536296,8.8896521 11.8984747,10.3461933 10.7552632,11.3410714 C10.439195,11.6037091 10.2869499,12.0194999 10.3570451,12.4286294 C10.4271403,12.8377589 10.7086671,13.1765547 11.093417,13.3147964 C11.4781669,13.453038 11.9062617,13.3692112 12.2131579,13.0955357 C13.8890235,11.6434049 14.8394192,9.50478635 14.8042789,7.26489123 C14.7691386,5.02499611 13.7521416,2.91835491 12.0315789,1.52142857 L12.0394737,1.53214286 Z" id="_Path_" fill="#6F56A3"></path>
                        <path d="M4.30789474,11.1535714 C3.15438759,10.154611 2.49475294,8.68696776 2.50643405,7.14544116 C2.51811517,5.60391456 3.19991253,4.14680246 4.36842105,3.16607143 L5.73157895,5.15625 L7.20263158,3.17678571 L6.48421053,2.10535714 L5.09736842,0.128571429 C2.6240658,1.0402993 0.815860447,3.22494092 0.352991346,5.86064363 C-0.109877754,8.49634633 0.842800072,11.1833114 2.85263158,12.9107143 C3.31867609,13.319148 4.01988246,13.2739452 4.43157895,12.8089286 L4.43157895,12.8089286 C4.63582329,12.5749684 4.73799031,12.2666271 4.71467257,11.9545486 C4.69135484,11.6424701 4.54455083,11.3534016 4.30789474,11.1535714 Z" id="_Path_2" fill="#AEAEAF"></path>
                    </g>
                </g>
                <g id="Group-25" transform="translate(247.000000, 21.000000)">
                    <g id="Oval-6-Copy-10">
                        <use fill="black" fill-opacity="1" filter="url(#filter-38)" xlink:href="#path-37"></use>
                        <use fill="#FFFFFF" fill-rule="evenodd" xlink:href="#path-37"></use>
                    </g>
                    <g id="Icon-Copy-5" transform="translate(10.000000, 9.000000)" fill-rule="nonzero">
                        <path d="M12.0782121,2.07433973 C11.8452095,2.02181393 11.6054964,1.9969218 11.3652373,2.00030349 C10.251567,2.00030349 9.12660955,2.32337072 8.09947444,2.68513871 C7.24534329,2.97955071 6.42611436,3.34931291 5.65391466,3.78895174 C5.1553967,4.07836613 4.0605384,4.58315868 4.0022212,5.1838618 C3.95895361,5.62471396 4.55717515,5.94609855 4.97856392,5.99321252 C5.36609108,6.03696121 5.67084545,5.86196646 5.99441182,5.67687586 C6.44213739,5.4211143 6.85035775,5.20237086 7.24352851,5.00381913 C8.74848838,4.26009145 11.3294945,3.29088976 13,2.77431872 C12.7173918,2.5161966 12.4088283,2.28188243 12.0782121,2.07433973 L12.0782121,2.07433973 Z" id="Shape" fill="#C3C4C6"></path>
                        <path d="M2.90853659,5.93186182 C2.90853659,5.93186182 2.90853659,5.92174134 2.90853659,5.9166811 C2.90853659,5.91162086 2.90853659,5.92680158 2.90853659,5.93186182 Z" id="Shape" fill="#A9AAAD"></path>
                        <path d="M11.451292,11.1129194 L11.1073207,11.2542864 C10.7004728,11.4231924 10.2788305,11.5994422 9.85164027,11.7444811 C9.37811104,11.9006753 8.89262335,12.0185601 8.3999332,12.0969806 C8.23377027,12.1253901 8.06552786,12.1401276 7.89692132,12.1410431 C7.03329431,12.1410431 6.63569301,11.6985827 6.45446079,11.2910051 C6.27694301,10.8908209 6.28369386,10.4337424 6.47295387,10.0388973 C7.1849376,8.57014916 12.1318375,6.76909675 12.6940272,6.56897981 C13.3098469,6.34866759 14.2992269,6.06042577 14.9964162,5.8584729 C15.0740871,4.66327909 13.8701874,3.26429648 13.2377239,2.98707027 C12.0856048,3.28449177 8.57931611,4.62288852 6.60055615,5.71526995 C6.21959863,5.9264025 5.82384663,6.1614022 5.38925917,6.43679248 C5.09152052,6.620386 4.75864501,6.83702635 4.34070132,6.83702635 C4.28877972,6.83714378 4.23690036,6.83407805 4.18535942,6.82784667 C3.66047347,6.7673707 3.20792552,6.4335633 2.99810344,5.95210559 C2.65968001,5.09288793 3.18303428,4.55863079 3.57508765,4.16757659 L3.70823785,4.03171739 L3.7174844,4.02253771 C4.91398691,2.96320311 6.95562336,1.48527529 10.9094447,0.78027618 C8.02760466,-0.637737339 4.55738253,-0.0887428511 2.26222927,2.14827898 C-0.0329239975,4.38530081 -0.649656446,7.81974689 0.725434753,10.7063464 C2.10052595,13.5929459 5.16586841,15.2986364 8.36375748,14.9566429 C11.5616465,14.6146494 14.1907505,12.2999747 14.9150466,9.18885932 C13.8246323,9.93796541 12.6648071,10.5822297 11.451292,11.1129194 Z" id="Shape" fill="#00A0E3"></path>
                        <path d="M14.9959303,7 C13.6314122,7.32000735 12.297179,7.73889627 11.0059909,8.25266062 C10.3478475,8.5110986 9.71771513,8.8250902 9.12384271,9.19052501 C8.80328654,9.39440858 8.02607214,9.85600097 8.00100071,10.2556128 C7.9669752,10.8069139 8.80865899,11.0793024 9.30113355,10.9798072 C10.3236898,10.7710304 11.161792,10.262137 12.0518278,9.83805921 C13.0411331,9.38708738 13.9880795,8.86283784 14.8831088,8.27060237 C14.9603696,7.91058277 14.9993509,7.54461867 14.9995119,7.17778647 C15.0013027,7.119068 14.9977211,7.06034953 14.9959303,7 Z" id="Shape" fill="#C3C4C6"></path>
                    </g>
                </g>
                <g id="Group-26" transform="translate(297.000000, 152.000000)">
                    <g id="Oval-6-Copy-11">
                        <use fill="black" fill-opacity="1" filter="url(#filter-40)" xlink:href="#path-39"></use>
                        <use fill="#FFFFFF" fill-rule="evenodd" xlink:href="#path-39"></use>
                    </g>
                    <g id="Icon-Copy-6" transform="translate(11.000000, 9.892605)" fill="#81C575" fill-rule="nonzero">
                        <path d="M12.3247222,1.16666667 C11.7896146,0.462077006 10.988832,0.0537309199 10.1436111,0.0544444444 L2.90333333,0.0544444444 C1.34573693,0.0544444444 0.0830555556,1.41425515 0.0830555556,3.09166667 L0.0830555556,10.8888889 C0.0830555556,12.5663004 1.34573693,13.9261111 2.90333333,13.9261111 L10.1436111,13.9261111 C11.7012075,13.9261111 12.9638889,12.5663004 12.9638889,10.8888889 L12.9638889,3.09166667 C12.964837,2.38954264 12.7388566,1.70895007 12.3247222,1.16666667 L12.3247222,1.16666667 Z M9.09097222,8.61972222 L4.66555556,10.6516667 C4.36434855,10.8428688 3.98770647,10.8295763 3.69876995,10.6175468 C3.40983343,10.4055173 3.26056249,10.0328805 3.31561308,9.66104208 C3.37066367,9.28920367 3.62013594,8.9850321 3.95597222,8.88027778 L8.38138889,6.84833333 C8.6825959,6.65713121 9.05923798,6.67042368 9.34817449,6.88245317 C9.63711101,7.09448266 9.78638196,7.46711951 9.73133137,7.83895792 C9.67628078,8.21079633 9.42680851,8.5149679 9.09097222,8.61972222 L9.09097222,8.61972222 Z M9.09097222,5.09638889 L4.66555556,7.12833333 C4.36434855,7.31953546 3.98770647,7.30624299 3.69876995,7.0942135 C3.40983343,6.88218401 3.26056249,6.50954716 3.31561308,6.13770875 C3.37066367,5.76587033 3.62013594,5.46169877 3.95597222,5.35694444 L8.38138889,3.325 C8.6825959,3.13379788 9.05923798,3.14709034 9.34817449,3.35911984 C9.63711101,3.57114933 9.78638196,3.94378617 9.73133137,4.31562459 C9.67628078,4.687463 9.42680851,4.99163456 9.09097222,5.09638889 Z" id="Shape"></path>
                    </g>
                </g>
                <g id="Group-27" transform="translate(329.000000, 97.000000)">
                    <g id="Oval-6-Copy-12">
                        <use fill="black" fill-opacity="1" filter="url(#filter-42)" xlink:href="#path-41"></use>
                        <use fill="#FFFFFF" fill-rule="evenodd" xlink:href="#path-41"></use>
                    </g>
                    <g id="Icon-Copy-4" transform="translate(8.000000, 7.892605)" fill-rule="nonzero">
                        <path d="M14.1459246,8.244 L14.1459248,14.7107368 C14.1457479,14.911571 14.2454348,15.0986688 14.4104211,15.2071579 C14.7384152,14.9900403 15.0374757,14.7301802 15.3000902,14.4341053 L15.3000902,8.83515789 C14.9252514,8.6184759 14.5400464,8.42117575 14.1459246,8.244 L14.1459246,8.244 Z" id="Shape" fill="#AF8FC2"></path>
                        <path d="M11.1865263,7.37431579 L11.1865263,16.3307368 C11.1852544,16.4689735 11.2317745,16.6032121 11.3178496,16.7096842 C11.6544812,16.5903158 11.9985113,16.4557895 12.3388421,16.3117895 L12.3388421,7.61494737 C11.9591413,7.51400651 11.5745,7.43368406 11.1865263,7.37431579 Z" id="Shape" fill="#AF8FC2"></path>
                        <path d="M8.22897744,7.34021053 L8.22897744,17.316 C8.56217231,17.3533141 8.89875914,17.3443915 9.22962406,17.2894737 L9.38129323,17.2591579 L9.38129323,7.25873684 C8.98917293,7.26631579 8.60506767,7.29347368 8.22897744,7.34021053 Z" id="Shape" fill="#AF8FC2"></path>
                        <path d="M6.42374436,7.704 C6.02422556,7.81578947 5.63950376,7.94273684 5.26957895,8.08294737 L5.26957895,16.3610526 C5.64332941,16.5481128 6.02607365,16.7156952 6.41634586,16.8631579 C6.41772178,16.8398107 6.41772178,16.8163998 6.41634586,16.7930526 L6.42374436,7.704 Z" id="Shape" fill="#AF8FC2"></path>
                        <path d="M3.46619549,14.5421053 L3.46619549,8.90526316 C3.0444812,9.13263158 2.6597594,9.36378947 2.31203008,9.58926316 L2.31203008,13.5341053 C2.65051128,14.0665263 2.99454135,14.5762105 3.29603008,14.9570526 C3.40411335,14.8472494 3.46530371,14.698037 3.46619549,14.5421053 Z" id="Shape" fill="#AF8FC2"></path>
                        <g id="Group" opacity="0.15" transform="translate(0.554887, 7.010526)" fill="#B7B4D9">
                            <path d="M16.728,3.19831579 C9.09830075,-3.02589474 1.88846617,2.29263158 0.138721805,3.78378947 C0.138721805,3.78378947 2.38786466,7.88778947 3.28308271,8.52063158 C4.17830075,9.15347368 6.82511278,10.6218947 8.68028571,10.2865263 C10.5354586,9.95115789 14.5343459,8.44294737 15.0892331,6.876 C15.5649401,5.61838682 16.1121324,4.39039005 16.728,3.19831579 L16.728,3.19831579 Z" id="Shape"></path>
                            <path d="M8.09395489,10.4210526 C6.26097744,10.4210526 4.02478195,9.14210526 3.23314286,8.59073684 C2.33792481,7.96168421 0.160917293,4.00168421 0.0684360902,3.83305263 L0.0351428571,3.77242105 L0.0869323308,3.72694737 C0.92481203,3.01263158 3.198,1.26378947 6.20918797,0.524842105 C9.95467669,-0.403578947 13.5115038,0.475578947 16.7797895,3.14147368 L16.8334286,3.18505263 L16.801985,3.24757895 C16.1872833,4.43115394 15.6401089,5.65025348 15.163218,6.89873684 C14.6083308,8.48842105 10.592797,10.0269474 8.68953383,10.3736842 C8.49273857,10.4072581 8.29345056,10.4231082 8.09395489,10.4210526 Z M0.246,3.81221053 C0.530842105,4.32568421 2.52103759,7.88589474 3.32562406,8.45242105 C4.13021053,9.01894737 6.81771429,10.5366316 8.66178947,10.2050526 C10.5058647,9.87347368 14.469609,8.36905263 15.0078496,6.84 C15.4778767,5.60572707 16.0176469,4.40053046 16.6244211,3.23052632 C9.21852632,-2.77010526 2.28428571,2.08421053 0.246,3.80463158 L0.246,3.81221053 Z" id="Shape"></path>
                        </g>
                        <path d="M8.64884211,17.4315789 C6.81586466,17.4315789 4.57966917,16.1526316 3.78803008,15.6012632 C2.89281203,14.9722105 0.715804511,11.0122105 0.623323308,10.8435789 L0.590030075,10.7829474 L0.641819549,10.7374737 C1.68086645,9.86037912 2.82142435,9.11773466 4.03772932,8.52631579 C7.27642105,6.95936842 12.2130677,5.96652632 17.3346767,10.1463158 L17.3883158,10.1898947 L17.3568722,10.2524211 C16.7421705,11.435996 16.1949961,12.6550956 15.7181053,13.9035789 C15.163218,15.4932632 11.1476842,17.0317895 9.24442105,17.3785263 C9.04778955,17.4140049 8.84850037,17.4317571 8.64884211,17.4315789 L8.64884211,17.4315789 Z M0.800887218,10.8227368 C1.08572932,11.3362105 3.07592481,14.8964211 3.88051128,15.4629474 C4.68509774,16.0294737 7.3726015,17.5471579 9.21667669,17.2155789 C11.0607519,16.884 15.0244962,15.3795789 15.5627368,13.8505263 C16.0327639,12.6162534 16.5725341,11.4110568 17.1793083,10.2410526 C12.142782,6.16736842 7.29306767,7.14315789 4.10801504,8.68547368 C2.92609127,9.25663309 1.81570263,9.97168775 0.800887218,10.8151579 L0.800887218,10.8227368 Z" id="Shape" fill="#B7B4D9"></path>
                        <path d="M14.4104211,15.2052632 C14.5876672,15.3237919 14.8141385,15.3330276 15.0000218,15.2293078 C15.185905,15.125588 15.3011642,14.925672 15.3000902,14.7088421 L15.3000977,14.4322105 C15.0374757,14.7282855 14.7384152,14.9881456 14.4104211,15.2052632 L14.4104211,15.2052632 Z" id="Shape" fill="#AF8FC2"></path>
                        <g id="Group" opacity="0.35" transform="translate(14.057143, 5.873684)" fill="#B7B4D9">
                            <path d="M1.24294737,0.778736842 C1.24294737,0.452249352 0.98457864,0.187578947 0.665864662,0.187578947 C0.347150683,0.187578947 0.0887819549,0.452249352 0.0887819549,0.778736842 L0.0887819549,2.37031579 C0.482903544,2.54749154 0.868108589,2.74479169 1.24294737,2.96147368 L1.24294737,0.778736842 Z" id="Shape"></path>
                        </g>
                        <g id="Group" opacity="0.35" transform="translate(11.097744, 4.168421)" fill="#B7B4D9">
                            <path d="M1.24294737,0.697263158 C1.24294737,0.370775668 0.98457864,0.106105263 0.665864662,0.106105263 C0.347150683,0.106105263 0.0887819549,0.370775668 0.0887819549,0.697263158 L0.0887819549,3.20589474 C0.477276219,3.26332342 0.862535515,3.34174863 1.24294737,3.44084211 L1.24294737,0.697263158 Z" id="Shape"></path>
                        </g>
                        <path d="M11.763609,16.9218947 C12.082323,16.9218947 12.3406917,16.6572243 12.3406917,16.3307368 L12.3406917,16.3042105 C12.0003609,16.4501053 11.6563308,16.5827368 11.3196992,16.7021053 C11.4277965,16.8401252 11.5908745,16.9208687 11.763609,16.9218947 L11.763609,16.9218947 Z" id="Shape" fill="#AF8FC2"></path>
                        <path d="M8.22897744,17.316 L8.22897744,17.3823158 C8.22897744,17.7088033 8.48734617,17.9734737 8.80606015,17.9734737 C9.12477413,17.9734737 9.38314286,17.7088033 9.38314286,17.3823158 L9.38314286,17.2591579 L9.23147368,17.2894737 C8.90000289,17.3445627 8.56278254,17.3534857 8.22897744,17.316 L8.22897744,17.316 Z" id="Shape" fill="#AF8FC2"></path>
                        <g id="Group" opacity="0.35" transform="translate(8.138346, 2.273684)" fill="#B7B4D9">
                            <path d="M1.24479699,0.771157895 C1.24479699,0.444670405 0.986428264,0.18 0.667714286,0.18 C0.349000307,0.18 0.0906315789,0.444670405 0.0906315789,0.771157895 L0.0906315789,5.06652632 C0.460556391,5.02105263 0.845278195,4.99389474 1.24479699,4.98505263 L1.24479699,0.771157895 Z" id="Shape"></path>
                        </g>
                        <g id="Group" opacity="0.35" transform="translate(5.178947, 4.168421)" fill="#B7B4D9">
                            <path d="M1.24479699,0.697263158 C1.24479699,0.370775668 0.986428264,0.106105263 0.667714286,0.106105263 C0.349000307,0.106105263 0.0906315789,0.370775668 0.0906315789,0.697263158 L0.0906315789,3.91831579 C0.460556391,3.77810526 0.845278195,3.65115789 1.24479699,3.53936842 L1.24479699,0.697263158 Z" id="Shape"></path>
                        </g>
                        <path d="M5.27142857,16.7949474 C5.26962602,17.1080908 5.50723418,17.3679839 5.81238419,17.3866387 C6.11753421,17.4052934 6.38362943,17.1761931 6.41819549,16.8650526 C6.02792328,16.7175899 5.64517903,16.5500076 5.27141838,16.3629474 L5.27142857,16.7949474 Z" id="Shape" fill="#AF8FC2"></path>
                        <path d="M2.31203008,14.5421053 C2.31220397,14.7808254 2.45252075,14.9960109 2.6677269,15.0875909 C2.88293305,15.1791709 3.13078873,15.1291705 3.29603008,14.9608421 C2.99639098,14.5818947 2.65051128,14.0722105 2.31203008,13.5378947 L2.31203008,14.5421053 Z" id="Shape" fill="#AF8FC2"></path>
                        <g id="Group" opacity="0.35" transform="translate(2.219549, 5.873684)" fill="#B7B4D9">
                            <path d="M1.24664662,0.776842105 C1.24664662,0.450354615 0.988277888,0.185684211 0.66956391,0.185684211 C0.350849931,0.185684211 0.092481203,0.450354615 0.092481203,0.776842105 L0.092481203,3.72126316 C0.438360902,3.49578947 0.832330827,3.26463158 1.24664662,3.03726316 L1.24664662,0.776842105 Z" id="Shape"></path>
                        </g>
                        <g id="Group" opacity="0.15" transform="translate(1.664662, 10.421053)" fill="#EDA2C0">
                            <path d="M0.0517894737,3.03157895 C3.66040602,0.888631579 8.82640602,-0.854526316 15.0004511,0.528631579 C15.0004511,0.528631579 13.2766015,5.22568421 12.1261353,5.49852632 C10.9756692,5.77136842 10.6464361,7.02568421 8.57115789,7.04463158 C6.4958797,7.06357895 3.10736842,6.79831579 2.09747368,5.75052632 C1.08757895,4.70273684 0.0517894737,3.03157895 0.0517894737,3.03157895 Z" id="Shape"></path>
                        </g>
                        <path d="M3.69924812,16.2227368 C2.69675188,15.1806316 1.64986466,13.5056842 1.63876692,13.4886316 L1.59252632,13.4147368 L1.66651128,13.3711579 C4.94404511,11.4252632 10.2080752,9.40926316 16.6743609,10.8587368 L16.639218,11.0235789 C10.272812,9.59684211 5.08091729,11.556 1.82372932,13.4715789 C2.41303657,14.406188 3.07949289,15.2873103 3.81577444,16.1052632 L3.69924812,16.2227368 Z" id="Shape" fill="#EDA2C0"></path>
                        <ellipse id="Oval" fill="#F16C4D" cx="4.97733835" cy="11.8989474" rx="1" ry="1"></ellipse>
                        <path d="M4.97733835,11.232 C5.33691309,11.232 5.62840602,11.5306025 5.62840602,11.8989474 C5.62840602,12.2672922 5.33691309,12.5658947 4.97733835,12.5658947 C4.6177636,12.5658947 4.32627068,12.2672922 4.32627068,11.8989474 C4.32627068,11.5306025 4.6177636,11.232 4.97733835,11.232 L4.97733835,11.232 Z M4.97733835,10.7261053 C4.3460395,10.7261053 3.83427068,11.2503563 3.83427068,11.8970526 C3.83427068,12.543749 4.3460395,13.068 4.97733835,13.068 C5.60863719,13.068 6.12040602,12.543749 6.12040602,11.8970526 C6.11938765,11.2507889 5.60821489,10.7271485 4.97733835,10.7261053 L4.97733835,10.7261053 Z" id="Shape" fill="#FFFFFF"></path>
                        <ellipse id="Oval" fill="#8C8DC4" cx="11.763609" cy="7.46526316" rx="1" ry="1"></ellipse>
                        <path d="M11.763609,6.79831579 C12.1231838,6.79831579 12.4146767,7.0969183 12.4146767,7.46526316 C12.4146767,7.83360802 12.1231838,8.13221053 11.763609,8.13221053 C11.4040343,8.13221053 11.1125414,7.83360802 11.1125414,7.46526316 C11.1125414,7.0969183 11.4040343,6.79831579 11.763609,6.79831579 L11.763609,6.79831579 Z M11.763609,6.29242105 C11.1323102,6.29242105 10.6205414,6.81667205 10.6205414,7.46336842 C10.6205414,8.1100648 11.1323102,8.63431579 11.763609,8.63431579 C12.3949079,8.63431579 12.9066767,8.1100648 12.9066767,7.46336842 C12.9056583,6.81710465 12.3944856,6.29346426 11.763609,6.29242105 L11.763609,6.29242105 Z" id="Shape" fill="#FFFFFF"></path>
                        <path d="M8.80606015,17.964 C4.00492009,17.964 0.112827068,13.9769779 0.112827068,9.05873684 C0.112827068,4.14049581 4.00492009,0.153473684 8.80606015,0.153473684 C13.6072002,0.153473684 17.4992932,4.14049581 17.4992932,9.05873684 C17.4992932,13.9769779 13.6072002,17.964 8.80606015,17.964 L8.80606015,17.964 Z M8.80606015,1.50442105 C4.73224173,1.50442105 1.4297594,4.88745174 1.4297594,9.06063158 C1.4297594,13.2338114 4.73224173,16.6168421 8.80606015,16.6168421 C12.8798786,16.6168421 16.1823609,13.2338114 16.1823609,9.06063158 C16.1772655,4.8896157 12.8777661,1.5096407 8.80606015,1.50442105 L8.80606015,1.50442105 Z" id="Shape" fill="url(#linearGradient-43)"></path>
                    </g>
                </g>
                <g id="Group-30" transform="translate(312.000000, 35.000000)">
                    <g id="Oval-6-Copy-13">
                        <use fill="black" fill-opacity="1" filter="url(#filter-45)" xlink:href="#path-44"></use>
                        <use fill="#FFFFFF" fill-rule="evenodd" xlink:href="#path-44"></use>
                    </g>
                    <g id="Group-4-Copy" transform="translate(9.000000, 10.000000)" fill-rule="nonzero">
                        <path d="M14.0840621,12.1415004 C14.0828167,11.9984804 14.0632887,11.8562429 14.0259763,11.7184149 C13.9920015,11.5916014 13.9536429,11.4670325 13.9098045,11.3458303 C13.3323523,9.72829273 11.9240514,8.57403664 10.2562768,8.35136594 C8.58850209,8.12869524 6.93824889,8.87459259 5.97505669,10.2864331 C6.85405515,9.93390083 7.83684089,9.97293212 8.68653359,10.3941192 C9.53622628,10.8153064 10.1757483,11.5804424 10.4509559,12.5051071 C10.4608195,12.5376521 10.4695872,12.5713194 10.4772589,12.6049867 C10.4849306,12.638654 10.4947943,12.6723213 10.5046579,12.7048663 C10.6668076,13.2341525 11.0491066,13.6630001 11.5491075,13.8764878 C11.7487366,13.9599301 11.9625765,14.0018926 12.1781883,13.9999345 L12.3272388,13.9999345 C12.543987,14.0015063 12.7588991,13.9591712 12.9596075,13.8753655 C13.6408924,13.5834631 14.084284,12.9010981 14.0840621,12.1448671 L14.0840621,12.1415004 Z" id="Path" fill="#E2E2E2"></path>
                        <path d="M6.53986157,0.271621663 C4.71197634,1.65998153 2.92104003,4.65236883 1.70715905,7 C2.12231125,6.54453701 2.58026963,6.13289154 3.07426941,5.77114426 C5.407278,4.06853589 8.38086112,3.6038806 11.0965339,4.51757661 C10.4379735,3.06856024 8.33949174,-1.09539611 6.53986157,0.271621663 Z" id="Path" fill="#E2E2E2"></path>
                        <path d="M1.70715905,7 C2.12231125,6.52801881 2.58026963,6.10144426 3.07426941,5.72657755 C5.407278,3.96222096 8.38086112,3.4807141 11.0965339,4.42754697 C10.9237433,4.03178496 10.6498865,3.44163397 10.3086523,2.81307078 C10.3086523,2.81307078 5.97476031,1.27425499 1.70715905,7 Z" id="Path" fill="#D6D6D6"></path>
                        <path d="M8.36613919,5.25000104 C4.70811436,5.24820365 1.43585863,7.57235083 0.165113974,11.0748482 C0.108816046,11.1963237 0.0666134835,11.3241005 0.039364921,11.4555791 C0.0134439792,11.5777486 0.00024896229,11.7023745 6.67910172e-13,11.8273779 C0.000562457171,12.6400813 0.553182816,13.3436387 1.33000573,13.5206477 C2.10682865,13.6976566 2.89996113,13.3007461 3.23885823,12.5653928 C3.29276563,12.4503481 3.33349333,12.3293368 3.3602334,12.2047592 C4.35940624,9.45164409 6.84975912,7.55509737 9.71902041,7.36217776 C12.5882817,7.16925816 15.3006916,8.71598836 16.6448008,11.311549 C15.4426405,7.68825867 12.1127548,5.25015179 8.36613919,5.25000104 Z" id="Path" fill="url(#linearGradient-46)"></path>
                        <path d="M13.6572724,10.5 C12.826837,9.16513486 11.4004127,8.34450017 9.85655816,8.31341505 C8.31270361,8.28232993 6.85595949,9.04491277 5.97505669,10.3453205 C6.63918704,10.0726082 7.37106492,10.0252756 8.06334951,10.2102646 C8.91442734,9.44033033 11.1164224,7.98588177 13.6572724,10.5 Z" id="Path" fill="#D6D6D6"></path>
                    </g>
                </g>
                <g id="Group-31" transform="translate(247.000000, 110.000000)">
                    <g id="Oval-6-Copy-14">
                        <use fill="black" fill-opacity="1" filter="url(#filter-48)" xlink:href="#path-47"></use>
                        <use fill="#FFFFFF" fill-rule="evenodd" xlink:href="#path-47"></use>
                    </g>
                    <g id="Group-5-Copy" transform="translate(10.000000, 10.000000)">
                        <path d="M3.11400446,2.08295816 C2.39751999,1.55199113 1.42992332,1.44257622 0.588720292,1.7967961 C0.369434927,1.88923283 0.172382662,2.00808005 0,2.14738816 C0.375678468,0.970234686 1.58357535,0.107395122 3.01882852,0.107395122 L14,0.107395122 L7.21601131,5.10739512 L3.11400446,2.08295816 Z" id="Fill-11" fill="#62A9DC"></path>
                        <path d="M1.59703003,3.20060975 C1.97070963,3.05019831 2.38444745,3.0947147 2.70269594,3.320804 L3.56003047,3.92959936 L7.08973586,6.41806557 C7.3231378,6.58264131 7.66030678,6.58264131 7.89356089,6.41779577 L13.0066745,2.80859572 L14,2.10739512 L14,8.03428032 C14,9.17754216 12.9157675,10.1073951 11.5830557,10.1073951 L3.41723993,10.1073951 C2.08452818,10.1073951 1,9.17754216 1,8.03428032 L1,7.66115204 L1,4.00743559 C1,3.65319304 1.22320261,3.35156078 1.59703003,3.20060975" id="Fill-12" fill="#0D57A0"></path>
                    </g>
                </g>
            </g>
        </g>
    </g>
</svg>