<svg xmlns="http://www.w3.org/2000/svg" xmlns:xlink="http://www.w3.org/1999/xlink" viewBox="0 0 30 35.67"><defs><style>.cls-1{fill:#cecece;}.cls-2{fill:url(#linear-gradient);}</style><linearGradient id="linear-gradient" x1="14.65" y1="6.98" x2="15.67" y2="28.15" gradientUnits="userSpaceOnUse"><stop offset="0" stop-color="#49f2ae"/><stop offset="1" stop-color="#09cff9"/></linearGradient></defs><title>Asset 5</title><g id="Layer_2" data-name="Layer 2"><g id="Layer_1-2" data-name="Layer 1"><path class="cls-1" d="M0,19.43q0-.51,0-1c0-.28.05-.56.05-.83q0-4.45,0-8.91C.05,8.11,0,7.55,0,7V6.7c0-.13.05-.26.06-.39A3.69,3.69,0,0,1,2.93,2.82C6.27,2,9.61,1.17,12.95.32A6.76,6.76,0,0,1,16.36.15c3.49.89,7,1.74,10.48,2.6a3.7,3.7,0,0,1,3.1,3.75c0,3.34,0,6.68,0,10,0,.73,0,1.46.06,2.18v.66c-.05.56-.08,1.11-.16,1.67a14.55,14.55,0,0,1-3.7,7.71,26.34,26.34,0,0,1-9.6,6.62,3.94,3.94,0,0,1-2.11.26,8.14,8.14,0,0,1-2.37-.9,24.48,24.48,0,0,1-8.88-6.8,13.87,13.87,0,0,1-3-6.72C.12,20.61.07,20,0,19.43Zm26.54-6.58h0c0-2.22,0-4.44,0-6.66,0-.26-.07-.35-.33-.41L15.27,3.09a1.16,1.16,0,0,0-.54,0L3.82,5.78c-.27.07-.34.16-.34.43q0,6.4,0,12.8A10.71,10.71,0,0,0,5.91,26a23.45,23.45,0,0,0,8.92,6.5.51.51,0,0,0,.37,0,23.89,23.89,0,0,0,8.56-6.09,10.75,10.75,0,0,0,2.78-7.22Q26.54,16,26.54,12.86Z"/><path class="cls-2" d="M23.95,14.32c0,1.67,0,3.34,0,5a8,8,0,0,1-2.05,5,18.27,18.27,0,0,1-6.72,4.8.46.46,0,0,1-.33,0,17.89,17.89,0,0,1-7-5.16A8.33,8.33,0,0,1,6,18.68c0-3.18,0-6.36,0-9.55,0-.39.08-.56.49-.66,2.74-.65,5.47-1.34,8.2-2a1.17,1.17,0,0,1,.53,0l8.41,2.07c.25.06.28.19.28.41,0,1.79,0,3.58,0,5.38ZM13.59,18.86c-.94-.81-1.88-1.64-2.83-2.45a2.76,2.76,0,0,0-.67-.43.81.81,0,0,0-.94.2.83.83,0,0,0-.24.93,2.34,2.34,0,0,0,.28.55q1.67,2.31,3.36,4.6c.77,1,1.31,1,2.11,0q3.08-3.95,6.14-7.91a2,2,0,0,0,.3-.54.9.9,0,0,0-.3-1,.75.75,0,0,0-.91-.15,3.16,3.16,0,0,0-.73.53q-2.26,2.24-4.5,4.49C14.3,18.08,14,18.45,13.59,18.86Z"/></g></g></svg>