<?xml version="1.0" encoding="UTF-8"?>
<svg width="47px" height="47px" viewBox="0 0 47 47" version="1.1" xmlns="http://www.w3.org/2000/svg" xmlns:xlink="http://www.w3.org/1999/xlink">
    <!-- Generator: Sketch 54.1 (76490) - https://sketchapp.com -->
    <title>Combined Shape</title>
    <desc>Created with Sketch.</desc>
    <defs>
        <linearGradient x1="50%" y1="0%" x2="50%" y2="100%" id="linearGradient-1">
            <stop stop-color="#FFBA67" offset="0%"></stop>
            <stop stop-color="#FF635E" offset="100%"></stop>
        </linearGradient>
        <path d="M423.5,4792.63265 C421.843146,4792.63265 420.5,4791.37174 420.5,4789.81633 C420.5,4788.26091 421.843146,4787 423.5,4787 C425.156854,4787 426.5,4788.26091 426.5,4789.81633 C426.5,4791.37174 425.156854,4792.63265 423.5,4792.63265 Z M427.993496,4800.75682 C428.021995,4800.95818 427.955998,4801.16096 427.812005,4801.31163 C427.669512,4801.46371 427.465522,4801.55102 427.249532,4801.55102 L426.441071,4801.55102 L425.815601,4808.71998 C425.737605,4809.45363 425.095636,4810 424.321673,4810 L422.679253,4810 C421.90529,4810 421.261821,4809.45363 421.186825,4808.73265 L420.559855,4801.55102 L419.749894,4801.55102 C419.533905,4801.55102 419.329915,4801.46371 419.187421,4801.31163 C419.044928,4801.16096 418.978932,4800.95818 419.00593,4800.75822 L419.688397,4795.75924 C419.763394,4795.05516 420.405363,4794.5102 421.179325,4794.5102 L421.999786,4794.5102 C422.199276,4794.5102 422.389767,4794.58484 422.53076,4794.7158 L423.499713,4795.62547 L424.468666,4794.7158 C424.60966,4794.58484 424.80015,4794.5102 424.999641,4794.5102 L425.821601,4794.5102 C426.594064,4794.5102 427.236033,4795.05516 427.312529,4795.77755 L427.993496,4800.75682 Z M430.8,4792.73913 C429.253603,4792.73913 428,4791.45438 428,4789.86957 C428,4788.28475 429.253603,4787 430.8,4787 C432.346397,4787 433.6,4788.28475 433.6,4789.86957 C433.6,4791.45438 432.346397,4792.73913 430.8,4792.73913 Z M434.993772,4800.75077 C435.021063,4800.96278 434.957862,4801.17627 434.819969,4801.33491 C434.683512,4801.49503 434.488163,4801.58696 434.281323,4801.58696 L433.50711,4801.58696 L432.909573,4807.65231 C432.834881,4808.42475 432.220107,4809 431.478931,4809 L429.906086,4809 C429.16491,4809 428.550136,4808.42623 428.476881,4807.66565 L428,4802.84273 C428.267168,4802.71522 428.5171,4802.55213 428.712448,4802.32085 C429.126128,4801.839 429.318604,4801.19851 429.238166,4800.56247 L428.587483,4795.33776 C428.544391,4794.92708 428.399316,4794.56087 428.214022,4794.22284 C428.298769,4794.20653 428.379206,4794.17391 428.468262,4794.17391 L429.255403,4794.17391 C429.445006,4794.17391 429.627427,4794.25249 429.762448,4794.39037 L430.690354,4795.34814 L431.618261,4794.39037 C431.753281,4794.25249 431.935702,4794.17391 432.126742,4794.17391 L432.913882,4794.17391 C433.655058,4794.17391 434.268396,4794.74768 434.341652,4795.50974 L434.993772,4800.75077 Z M416.2,4787 C417.7428,4787 419,4788.287 419,4789.86957 C419,4791.45213 417.7428,4792.73913 416.2,4792.73913 C414.6558,4792.73913 413.4,4791.45213 413.4,4789.86957 C413.4,4788.287 414.6558,4787 416.2,4787 Z M418.279365,4802.31343 C418.480352,4802.54769 418.731585,4802.71226 419,4802.84124 L418.523375,4807.65231 C418.448723,4808.42475 417.834279,4809 417.093501,4809 L415.521501,4809 C414.780723,4809 414.164843,4808.42475 414.093062,4807.66565 L413.492975,4801.58696 L412.717742,4801.58696 C412.512449,4801.58696 412.315769,4801.49503 412.179386,4801.33491 C412.043002,4801.17627 411.979835,4800.96278 412.005676,4800.75225 L412.658882,4795.48899 C412.730662,4794.74768 413.345106,4794.17391 414.085884,4794.17391 L414.872647,4794.17391 C415.062149,4794.17391 415.244472,4794.25249 415.37942,4794.39037 L416.306828,4795.34814 L417.234236,4794.39037 C417.369184,4794.25249 417.551508,4794.17391 417.742445,4794.17391 L418.529163,4794.17391 C418.613864,4794.17391 418.689952,4794.20653 418.770346,4794.22136 C418.590894,4794.5505 418.450204,4794.90632 418.412878,4795.3007 L417.759672,4800.56544 C417.682149,4801.19851 417.87165,4801.83752 418.279365,4802.31343 Z" id="path-2"></path>
        <filter x="-91.3%" y="-65.2%" width="282.6%" height="282.6%" filterUnits="objectBoundingBox" id="filter-3">
            <feOffset dx="0" dy="6" in="SourceAlpha" result="shadowOffsetOuter1"></feOffset>
            <feGaussianBlur stdDeviation="6" in="shadowOffsetOuter1" result="shadowBlurOuter1"></feGaussianBlur>
            <feColorMatrix values="0 0 0 0 0.672780797   0 0 0 0 0.339845457   0 0 0 0 0  0 0 0 0.3 0" type="matrix" in="shadowBlurOuter1"></feColorMatrix>
        </filter>
    </defs>
    <g id="Page-1" stroke="none" stroke-width="1" fill="none" fill-rule="evenodd">
        <g id="About-Us-Page-Design---weDevs" transform="translate(-400.000000, -4781.000000)" fill-rule="nonzero">
            <g id="Combined-Shape">
                <use fill="black" fill-opacity="1" filter="url(#filter-3)" xlink:href="#path-2"></use>
                <use fill="url(#linearGradient-1)" xlink:href="#path-2"></use>
            </g>
        </g>
    </g>
</svg>