<?xml version="1.0" encoding="UTF-8"?>
<svg width="42px" height="41px" viewBox="0 0 42 41" version="1.1" xmlns="http://www.w3.org/2000/svg" xmlns:xlink="http://www.w3.org/1999/xlink">
    <!-- Generator: Sketch 54.1 (76490) - https://sketchapp.com -->
    <title>Group 8 Copy</title>
    <desc>Created with Sketch.</desc>
    <defs>
        <linearGradient x1="-134.918313%" y1="0%" x2="50%" y2="239.002687%" id="linearGradient-1">
            <stop stop-color="#FFD1EE" offset="0%"></stop>
            <stop stop-color="#FF6BAF" offset="100%"></stop>
        </linearGradient>
        <path d="M18.928,-3.73034936e-13 C20.592,-3.73034936e-13 22.048,1.47 22.048,3.15 C22.048,4.83 20.592,6.3 18.928,6.3 C17.264,6.3 15.808,4.83 15.808,3.15 C15.808,1.47 17.264,-3.73034936e-13 18.928,-3.73034936e-13 Z" id="path-2"></path>
        <filter x="-280.4%" y="-198.4%" width="660.9%" height="655.6%" filterUnits="objectBoundingBox" id="filter-3">
            <feOffset dx="0" dy="5" in="SourceAlpha" result="shadowOffsetOuter1"></feOffset>
            <feGaussianBlur stdDeviation="5" in="shadowOffsetOuter1" result="shadowBlurOuter1"></feGaussianBlur>
            <feColorMatrix values="0 0 0 0 0.672780797   0 0 0 0 0   0 0 0 0 0.644515476  0 0 0 0.3 0" type="matrix" in="shadowBlurOuter1"></feColorMatrix>
        </filter>
        <path d="M4.368,-3.73034936e-13 C6.032,-3.73034936e-13 7.488,1.47 7.488,3.15 C7.488,4.83 6.032,6.3 4.368,6.3 C2.704,6.3 1.248,4.83 1.248,3.15 C1.248,1.47 2.704,-3.73034936e-13 4.368,-3.73034936e-13 Z" id="path-4"></path>
        <filter x="-280.4%" y="-198.4%" width="660.9%" height="655.6%" filterUnits="objectBoundingBox" id="filter-5">
            <feOffset dx="0" dy="5" in="SourceAlpha" result="shadowOffsetOuter1"></feOffset>
            <feGaussianBlur stdDeviation="5" in="shadowOffsetOuter1" result="shadowBlurOuter1"></feGaussianBlur>
            <feColorMatrix values="0 0 0 0 0.672780797   0 0 0 0 0   0 0 0 0 0.644515476  0 0 0 0.3 0" type="matrix" in="shadowBlurOuter1"></feColorMatrix>
        </filter>
        <linearGradient x1="-138.491531%" y1="43.4992141%" x2="50%" y2="74.57332%" id="linearGradient-6">
            <stop stop-color="#FFD1EE" offset="0%"></stop>
            <stop stop-color="#FF6BAF" offset="100%"></stop>
        </linearGradient>
        <path d="M11.648,21 C6.24,21 1.664,17.43 -4.54747351e-13,12.6 L23.296,12.6 C21.632,17.43 17.056,21 11.648,21 Z" id="path-7"></path>
        <filter x="-75.1%" y="-148.8%" width="250.2%" height="516.7%" filterUnits="objectBoundingBox" id="filter-8">
            <feOffset dx="0" dy="5" in="SourceAlpha" result="shadowOffsetOuter1"></feOffset>
            <feGaussianBlur stdDeviation="5" in="shadowOffsetOuter1" result="shadowBlurOuter1"></feGaussianBlur>
            <feColorMatrix values="0 0 0 0 0.672780797   0 0 0 0 0   0 0 0 0 0.644515476  0 0 0 0.3 0" type="matrix" in="shadowBlurOuter1"></feColorMatrix>
        </filter>
    </defs>
    <g id="Page-1" stroke="none" stroke-width="1" fill="none" fill-rule="evenodd">
        <g id="About-Us-Page-Design---weDevs" transform="translate(-657.000000, -4911.000000)" fill-rule="nonzero">
            <g id="Group-8-Copy" transform="translate(666.000000, 4916.000000)">
                <g id="Path">
                    <use fill="black" fill-opacity="1" filter="url(#filter-3)" xlink:href="#path-2"></use>
                    <use fill="url(#linearGradient-1)" xlink:href="#path-2"></use>
                </g>
                <g id="Path">
                    <use fill="black" fill-opacity="1" filter="url(#filter-5)" xlink:href="#path-4"></use>
                    <use fill="url(#linearGradient-1)" xlink:href="#path-4"></use>
                </g>
                <g id="Path">
                    <use fill="black" fill-opacity="1" filter="url(#filter-8)" xlink:href="#path-7"></use>
                    <use fill="url(#linearGradient-6)" xlink:href="#path-7"></use>
                </g>
            </g>
        </g>
    </g>
</svg>