<?xml version="1.0" encoding="UTF-8"?>
<svg width="47px" height="47px" viewBox="0 0 47 47" version="1.1" xmlns="http://www.w3.org/2000/svg" xmlns:xlink="http://www.w3.org/1999/xlink">
    <!-- Generator: Sketch 54.1 (76490) - https://sketchapp.com -->
    <title>Shape Copy</title>
    <desc>Created with Sketch.</desc>
    <defs>
        <linearGradient x1="0%" y1="0%" x2="85.013874%" y2="115.817863%" id="linearGradient-1">
            <stop stop-color="#5EFCE8" offset="0%"></stop>
            <stop stop-color="#736EFE" offset="100%"></stop>
        </linearGradient>
        <path d="M434.324011,5048.22546 C433.20619,5046.31044 431.689938,5044.7942 429.774856,5043.67644 C427.859431,5042.55874 425.768478,5042 423.500399,5042 C421.232549,5042 419.141196,5042.55874 417.225885,5043.67644 C415.310689,5044.79403 413.794437,5046.31027 412.676617,5048.22546 C411.558739,5050.14076 411,5052.23233 411,5054.5 C411,5056.76767 411.55891,5058.85901 412.676446,5060.77443 C413.794209,5062.68905 415.310461,5064.20569 417.225657,5065.32356 C419.140968,5066.44121 421.232378,5067 423.500171,5067 C425.767964,5067 427.859602,5066.44121 429.774799,5065.32356 C431.689881,5064.20609 433.206076,5062.68944 434.323783,5060.77443 C435.441318,5058.85901 436,5056.7675 436,5054.5 C436.000057,5052.23233 435.441318,5050.14047 434.324011,5048.22546 Z M425.063797,5061.0768 C424.95474,5060.94688 424.917057,5060.83816 424.949837,5060.751 C424.938949,5060.80538 424.900924,5060.85418 424.835934,5060.89745 C424.781719,5060.83246 424.683722,5060.751 424.542854,5060.65346 C424.401588,5060.55546 424.304103,5060.47428 424.249831,5060.40878 C424.22794,5060.3764 424.198353,5060.33033 424.160271,5060.27065 C424.122246,5060.21096 424.073504,5060.13235 424.013817,5060.03458 C423.954471,5059.93704 423.911144,5059.85278 423.883894,5059.78209 C423.856929,5059.71151 423.854421,5059.67092 423.875685,5059.66038 C423.669657,5059.74737 423.371161,5059.68768 422.980597,5059.48126 C422.904718,5059.43793 422.790588,5059.32397 422.638774,5059.13944 C422.486961,5058.9549 422.329561,5058.87372 422.166745,5058.89521 C422.112587,5058.9061 422.039274,5058.92503 421.946978,5058.95216 C421.854909,5058.97947 421.776181,5058.99275 421.71102,5058.99275 C421.645859,5058.99275 421.559036,5058.97132 421.450492,5058.92754 C421.363839,5058.89521 421.2472,5058.83256 421.100688,5058.74049 C420.954291,5058.64842 420.853785,5058.59107 420.799684,5058.56981 C420.658645,5058.4937 420.588126,5058.45585 420.588126,5058.45585 L420.327712,5058.32593 C420.262551,5058.29361 420.194654,5058.24201 420.124135,5058.17144 C420.053615,5058.1008 420.007666,5058.02749 419.985946,5057.95156 C419.964283,5057.88662 419.937147,5057.7563 419.904595,5057.56082 C419.872044,5057.36529 419.828546,5057.22448 419.774388,5057.13782 C419.709399,5057.02939 419.617159,5056.92085 419.497669,5056.81242 C419.378465,5056.70399 419.269978,5056.64932 419.172266,5056.64932 C419.259146,5056.64932 419.259146,5056.57658 419.172266,5056.42967 C419.085385,5056.28293 419.00945,5056.17718 418.944289,5056.11247 C418.922569,5056.09058 418.857408,5056.02018 418.748921,5055.90058 C418.640434,5055.78114 418.548195,5055.67836 418.47226,5055.59114 C418.396382,5055.50437 418.330993,5055.40409 418.276892,5055.28996 C418.222734,5055.176 418.211731,5055.0812 418.24434,5055.00509 C418.255115,5054.99437 418.24434,5054.97796 418.211731,5054.95635 C418.17918,5054.93491 418.138647,5054.91285 418.089676,5054.89119 C418.040934,5054.8697 417.994758,5054.8506 417.951488,5054.83424 C417.907877,5054.81822 417.875325,5054.81001 417.853719,5054.81001 C417.875553,5054.85374 417.899896,5054.93218 417.927089,5055.04608 C417.954225,5055.16021 417.98404,5055.24436 418.016535,5055.29857 C418.038369,5055.3419 418.130494,5055.49947 418.293253,5055.77025 C418.575559,5056.22598 418.705538,5056.56272 418.683989,5056.77964 C418.618828,5056.80113 418.575331,5056.79053 418.553668,5056.74726 C418.531947,5056.70399 418.515529,5056.64425 418.504812,5056.5682 C418.49398,5056.49249 418.483262,5056.43828 418.472203,5056.4055 C418.439651,5056.34034 418.355564,5056.2697 418.219827,5056.1936 C418.084261,5056.11795 418.000059,5056.04184 417.967565,5055.96574 C417.97851,5055.96574 417.99185,5055.96066 418.008268,5055.94937 C418.02463,5055.93849 418.038312,5055.93341 418.049029,5055.93341 C418.060032,5055.83581 418.003081,5055.71102 417.878232,5055.55881 C417.753384,5055.40706 417.702076,5055.29863 417.723626,5055.23341 C417.636745,5055.16825 417.56081,5055.04067 417.495649,5054.85106 C417.430546,5054.66105 417.376217,5054.53888 417.332833,5054.48455 C417.289507,5054.41968 417.235406,5054.36272 417.170188,5054.31375 C417.105028,5054.26507 417.023791,5054.21085 416.926021,5054.15111 C416.828366,5054.09142 416.763205,5054.05083 416.730654,5054.02906 C416.708876,5054.0184 416.665607,5053.96977 416.600446,5053.88289 C416.242434,5053.44871 416.133947,5053.21538 416.275043,5053.18288 C416.134004,5053.21538 416.017308,5053.10969 415.925068,5052.86535 C415.832772,5052.6213 415.803013,5052.43391 415.835508,5052.30376 L415.803013,5052.28757 C415.813959,5052.24407 415.819318,5052.11678 415.819318,5051.90499 C415.819318,5051.69332 415.833,5051.50069 415.860079,5051.32716 C415.887329,5051.15357 415.938807,5051.06663 416.014685,5051.06663 C415.938807,5051.07746 415.881913,5051.00951 415.843888,5050.86328 C415.805921,5050.71666 415.803241,5050.61621 415.835679,5050.56205 C415.846511,5050.52944 415.895481,5050.55139 415.982191,5050.62721 C416.068843,5050.70292 416.117757,5050.75206 416.128588,5050.77361 C416.269684,5050.69744 416.324013,5050.59996 416.291404,5050.48047 C416.269684,5050.43715 416.155724,5050.32324 415.949582,5050.13865 C415.482911,5049.83497 415.244103,5049.6884 415.233442,5049.69912 C415.298318,5049.57991 415.282128,5049.47684 415.184472,5049.38991 C415.076042,5049.45507 415.013675,5049.47126 414.997314,5049.43888 C414.981123,5049.40627 414.967555,5049.34681 414.956553,5049.25987 C414.945835,5049.17316 414.918585,5049.12436 414.875316,5049.11347 C414.820987,5049.10264 414.755826,5049.05932 414.679948,5048.98332 C415.645613,5047.44251 416.920549,5046.2381 418.504812,5045.36986 C418.569858,5045.35915 418.689177,5045.35367 418.862767,5045.35367 C418.949477,5045.36451 419.030942,5045.3917 419.10682,5045.43502 C419.182812,5045.47835 419.261541,5045.53815 419.342778,5045.61403 C419.4243,5045.68974 419.486667,5045.74407 419.529993,5045.77667 C419.551713,5045.71151 419.524634,5045.61386 419.448699,5045.48365 C419.470248,5045.41849 419.589681,5045.35333 419.806712,5045.28829 C420.056124,5045.25573 420.219054,5045.26104 420.294932,5045.30465 C420.229942,5045.20693 420.121512,5045.07126 419.969528,5044.89772 L419.888177,5044.97896 C419.801296,5044.90308 419.573605,5044.94099 419.204589,5045.09292 C419.18304,5045.10364 419.128711,5045.13368 419.04183,5045.18236 C418.955121,5045.23111 418.884373,5045.26645 418.830272,5045.28811 C418.765112,5045.30983 418.700065,5045.31525 418.634905,5045.30442 C419.155676,5045.0224 419.665787,5044.79961 420.16501,5044.63702 C420.197276,5044.65857 420.251662,5044.70475 420.327655,5044.77521 C420.403533,5044.84573 420.46322,5044.89738 420.506661,5044.92982 C420.474109,5044.90827 420.452332,5044.91887 420.4415,5044.96237 C420.398174,5045.09252 420.398174,5045.20101 420.4415,5045.28777 C420.495658,5045.36394 420.568971,5045.40709 420.661268,5045.41809 C420.753564,5045.42881 420.864674,5045.42345 420.994881,5045.40167 C421.125088,5045.38013 421.212026,5045.36912 421.255409,5045.36912 L421.418225,5045.38554 C421.765349,5045.41809 421.901086,5045.38554 421.825151,5045.28777 C421.857646,5045.33138 421.895613,5045.42083 421.938996,5045.55651 C421.982323,5045.69219 422.031293,5045.78716 422.085394,5045.84144 C422.139723,5045.79782 422.150555,5045.72195 422.117946,5045.61346 C422.085394,5045.50497 422.085394,5045.42881 422.117946,5045.38548 C422.128663,5045.36394 422.161272,5045.34199 422.215601,5045.32032 C422.26993,5045.29878 422.33224,5045.27438 422.402817,5045.24724 C422.473336,5045.21999 422.519456,5045.20106 422.541347,5045.19029 C422.606394,5045.14679 422.562896,5045.0708 422.411026,5044.96231 C422.389306,5044.95142 422.3433,5044.93518 422.272838,5044.91346 C422.202318,5044.89208 422.13978,5044.87007 422.085622,5044.84847 C422.031464,5044.82692 421.974513,5044.79699 421.914825,5044.75902 C421.855137,5044.721 421.827944,5044.67767 421.833246,5044.6287 C421.838719,5044.57973 421.868705,5044.51748 421.922806,5044.44149 C421.987967,5044.38739 422.093831,5044.36561 422.240229,5044.37644 C422.386626,5044.38716 422.497964,5044.41424 422.573842,5044.45768 C422.866979,5044.62049 422.910248,5044.76723 422.704163,5044.89721 C422.812821,5044.90793 422.943028,5044.95137 423.094898,5045.02725 C423.246655,5045.10329 423.306343,5045.1847 423.273905,5045.27158 C423.360729,5045.10882 423.447438,5045.02725 423.534376,5045.02725 C423.588534,5045.03825 423.640298,5045.11156 423.688983,5045.24718 C423.737725,5045.38275 423.767483,5045.45595 423.778258,5045.46695 C423.865253,5045.58615 423.951506,5045.61335 424.0389,5045.54819 C424.125553,5045.48314 424.215284,5045.38822 424.307353,5045.26337 C424.399421,5045.1387 424.450957,5045.08175 424.461902,5045.09258 C424.353415,5045.04936 424.342071,5045.00587 424.429522,5044.96243 C424.591825,5044.86477 424.738564,5044.83758 424.868885,5044.88119 C424.901209,5044.90274 424.944934,5044.95171 424.99875,5045.02742 C425.096121,5045.22301 425.07993,5045.31508 424.950008,5045.30425 C425.04755,5045.39113 425.087968,5045.49973 425.072177,5045.62976 C425.055816,5045.75997 424.971272,5045.81972 424.819516,5045.80877 C424.765472,5045.80877 424.686458,5045.78152 424.583216,5045.72742 C424.480202,5045.67326 424.401588,5045.6435 424.347145,5045.63797 C424.29293,5045.63233 424.216823,5045.66226 424.119282,5045.72742 C424.075956,5045.78175 424.019004,5045.87404 423.948371,5046.00414 C423.877795,5046.13457 423.815313,5046.22664 423.761098,5046.2808 C423.598453,5046.44356 423.326923,5046.50336 422.94719,5046.4598 C422.979799,5046.4598 422.976948,5046.49235 422.938981,5046.55751 C422.900842,5046.62256 422.849534,5046.69593 422.784374,5046.77722 C422.719213,5046.85857 422.681246,5046.90469 422.670528,5046.91553 C422.572816,5047.02401 422.507769,5047.14886 422.47516,5047.2899 C422.47516,5047.31162 422.469688,5047.38493 422.458742,5047.50955 C422.447739,5047.6344 422.42619,5047.72949 422.393581,5047.79448 C422.523788,5047.76192 422.626917,5047.82726 422.702795,5047.98984 C422.767955,5048.14183 422.767955,5048.22318 422.702795,5048.23412 C423.060978,5048.18008 423.375665,5048.20163 423.647139,5048.29928 C424.037703,5048.44032 424.260492,5048.58136 424.314707,5048.72245 C424.379525,5048.62469 424.536754,5048.61916 424.786451,5048.70604 C424.884164,5048.76019 424.970588,5048.92318 425.047036,5049.19425 C425.090363,5049.3569 425.163733,5049.49811 425.266747,5049.61737 C425.369989,5049.73669 425.480984,5049.76918 425.600531,5049.71502 L425.649159,5049.68247 C425.692656,5049.66092 425.727774,5049.64182 425.754853,5049.62558 C425.78216,5049.60939 425.811804,5049.58761 425.844185,5049.56042 C425.876965,5049.53328 425.896062,5049.50888 425.901136,5049.48733 C425.90621,5049.46567 425.8984,5049.44372 425.876965,5049.42217 C425.800858,5049.35701 425.743907,5049.26757 425.706053,5049.15378 C425.668428,5049.03982 425.67658,5048.93937 425.730681,5048.85243 C425.763005,5048.80911 425.849886,5048.74395 425.990867,5048.65707 C426.132134,5048.57013 426.218958,5048.48342 426.251282,5048.3966 C426.295235,5048.25556 426.240564,5048.13886 426.088751,5048.04651 C425.936823,5047.95444 425.860717,5047.87035 425.860717,5047.79425 C425.860717,5047.73992 425.896005,5047.67493 425.966411,5047.59888 C426.037215,5047.523 426.067087,5047.45226 426.055971,5047.38732 C426.055971,5047.35454 426.036816,5047.28688 425.998962,5047.18375 C425.961337,5047.08045 425.939275,5047.00457 425.933973,5046.95577 C425.9285,5046.90692 425.953128,5046.84997 426.007115,5046.78498 C426.082822,5046.74148 426.261942,5046.74422 426.54402,5046.79296 C426.826154,5046.84193 427.010747,5046.89346 427.097742,5046.94756 C427.130465,5046.96911 427.200927,5047.00172 427.309414,5047.04528 C427.417844,5047.08837 427.512877,5047.13449 427.594456,5047.18352 C427.675408,5047.23226 427.721585,5047.27821 427.732359,5047.32171 L427.651179,5047.32171 C427.727058,5047.38704 427.773348,5047.46275 427.789311,5047.54968 C427.805729,5047.63679 427.765139,5047.70172 427.667598,5047.74528 C427.732359,5047.73428 427.819525,5047.75064 427.928012,5047.79402 C428.10166,5047.85907 428.107132,5047.91887 427.944374,5047.97303 C427.976754,5047.96202 428.022817,5047.95136 428.082334,5047.94042 C428.142022,5047.92959 428.187913,5047.91322 428.220636,5047.89168 C428.242128,5047.88073 428.269378,5047.86192 428.301816,5047.83467 C428.334596,5047.80753 428.358767,5047.79117 428.375186,5047.78598 C428.391547,5047.78062 428.415719,5047.77498 428.448499,5047.76956 C428.480879,5047.76421 428.513317,5047.77241 428.545641,5047.79396 C428.556986,5047.79396 428.581157,5047.76677 428.619011,5047.71261 C428.656636,5047.65851 428.697853,5047.60418 428.740952,5047.55003 C428.784506,5047.49587 428.822132,5047.46879 428.854911,5047.46879 C428.887064,5047.46879 428.917165,5047.48213 428.944015,5047.50926 C428.971494,5047.53651 428.992758,5047.56622 429.009233,5047.59882 C429.025594,5047.63143 429.041557,5047.66672 429.057975,5047.70446 C429.074337,5047.74243 429.08762,5047.77247 429.098565,5047.79402 C429.12,5047.84818 429.171878,5047.90536 429.253058,5047.96482 C429.334238,5048.02433 429.385716,5048.08146 429.407551,5048.13561 C429.418496,5048.16822 429.43976,5048.24963 429.47254,5048.38001 C429.504921,5048.51021 429.548646,5048.59966 429.60269,5048.6484 C429.656905,5048.69737 429.738256,5048.73796 429.846686,5048.77046 C429.868406,5048.78146 429.917548,5048.77593 429.993198,5048.75438 C430.068905,5048.73255 430.131557,5048.72713 430.180299,5048.73796 C430.22944,5048.74868 430.253612,5048.792 430.253612,5048.86817 C430.318602,5048.80301 430.350982,5048.75951 430.350982,5048.73796 C430.362099,5048.87906 430.397045,5048.99307 430.457132,5049.07978 C430.51682,5049.16643 430.611625,5049.20463 430.741946,5049.19363 L430.709166,5049.55181 C430.676785,5049.60597 430.595434,5049.64656 430.464942,5049.67364 C430.334621,5049.70089 430.253441,5049.72546 430.220661,5049.747 C430.18828,5049.75784 430.109495,5049.82294 429.984589,5049.94243 C429.859741,5050.06192 429.808605,5050.13244 429.830097,5050.15399 C429.64596,5049.94779 429.368842,5049.8881 429.000112,5049.97498 C428.587941,5050.04008 428.305579,5050.10519 428.153822,5050.17035 C427.980346,5050.25728 427.860742,5050.33852 427.795639,5050.4144 C427.78475,5050.42523 427.766165,5050.46337 427.738858,5050.52836 C427.711722,5050.5934 427.684643,5050.65321 427.657678,5050.70736 C427.6302,5050.76152 427.6062,5050.78866 427.584537,5050.78866 C427.649868,5050.77811 427.722896,5050.72629 427.804247,5050.63422 C427.885826,5050.54193 427.937304,5050.49062 427.958797,5050.47962 C428.240646,5050.29525 428.473981,5050.23009 428.659544,5050.28562 C428.898181,5050.35078 428.936205,5050.43766 428.773275,5050.54614 C428.752011,5050.56769 428.694661,5050.57585 428.602592,5050.57054 C428.510524,5050.56519 428.448043,5050.56769 428.41532,5050.57875 C428.51326,5050.6003 428.594383,5050.63023 428.659943,5050.66797 C428.724704,5050.70594 428.741123,5050.75753 428.708514,5050.82258 C428.88199,5050.92029 428.914713,5051.02878 428.806283,5051.14826 C428.665016,5051.28953 428.497241,5051.34899 428.301759,5051.32727 C428.334539,5051.32727 428.334539,5051.34905 428.301759,5051.39237 L428.024755,5051.57138 C428.003263,5051.58204 427.932687,5051.60912 427.813254,5051.65273 C427.693879,5051.69583 427.612357,5051.74503 427.56903,5051.79913 C427.53665,5051.84257 427.520288,5051.90761 427.520288,5051.99472 C427.520288,5052.08166 427.514815,5052.14682 427.503927,5052.19014 C427.493209,5052.23376 427.449655,5052.24425 427.374005,5052.2227 C427.341225,5052.28774 427.240947,5052.33934 427.072772,5052.37707 C426.904598,5052.41504 426.793431,5052.47199 426.739159,5052.54787 C426.803921,5052.63481 426.798847,5052.72152 426.722741,5052.8084 C426.59242,5052.91706 426.478517,5052.90605 426.380976,5052.77585 C426.326761,5052.79757 426.285943,5052.85172 426.258807,5052.93866 C426.231899,5053.02554 426.190967,5053.08523 426.137037,5053.11767 C426.213143,5053.23704 426.201855,5053.32409 426.104713,5053.37808 C426.11526,5053.37808 426.13983,5053.38908 426.177627,5053.41069 C426.21548,5053.43235 426.25607,5053.45943 426.299796,5053.49204 C426.343122,5053.52465 426.369973,5053.54101 426.380976,5053.54101 C426.337649,5053.63844 426.277733,5053.68724 426.201855,5053.68724 C426.267016,5053.86094 426.185836,5054.05095 425.95803,5054.25697 C425.914248,5054.3003 425.846408,5054.34363 425.754339,5054.38718 C425.661644,5054.43051 425.577785,5054.46568 425.501678,5054.49287 C425.425572,5054.52007 425.382474,5054.53899 425.371585,5054.54983 C425.263098,5054.64765 425.181519,5054.74793 425.127532,5054.85094 C425.073488,5054.95418 425.065279,5055.0544 425.102905,5055.15217 C425.140986,5055.25011 425.241264,5055.31487 425.404308,5055.34765 L425.420099,5055.47775 L425.420099,5055.7706 L425.436461,5055.90092 C425.447577,5055.9768 425.455787,5056.04469 425.461088,5056.10455 C425.46639,5056.1643 425.46639,5056.23994 425.461088,5056.33241 C425.455787,5056.42448 425.431273,5056.47619 425.387947,5056.48673 C425.344848,5056.49785 425.285103,5056.48673 425.208997,5056.45418 C425.121831,5056.41086 425.018988,5056.17211 424.899385,5055.73816 C424.877722,5055.62973 424.81239,5055.49975 424.703903,5055.3476 C424.649688,5055.40181 424.603625,5055.43693 424.565772,5055.45318 C424.528089,5055.46954 424.500554,5055.4725 424.484763,5055.46138 C424.468401,5055.45067 424.438529,5055.4261 424.395089,5055.38824 C424.351762,5055.35039 424.31408,5055.32035 424.281357,5055.29891 C424.227085,5055.26653 424.13228,5055.23917 423.996315,5055.21773 C423.86092,5055.19607 423.776377,5055.16876 423.744224,5055.13638 C423.483525,5055.33203 423.326067,5055.28284 423.271909,5054.99027 C423.25036,5055.04431 423.252983,5055.11745 423.280119,5055.20998 C423.307369,5055.30222 423.32088,5055.35358 423.32088,5055.36447 C423.245002,5055.50574 423.125683,5055.51623 422.962867,5055.39685 C422.897706,5055.33203 422.748458,5055.32388 422.515123,5055.37262 C422.281788,5055.42125 422.127181,5055.4294 422.051303,5055.39685 C422.062306,5055.39685 422.083855,5055.41304 422.116464,5055.44576 C422.148958,5055.46703 422.170793,5055.48345 422.181567,5055.49439 C422.170622,5055.53795 422.154431,5055.57027 422.132597,5055.59193 C422.11082,5055.61343 422.0891,5055.62163 422.067493,5055.61656 C422.045773,5055.61109 422.021374,5055.61109 421.994124,5055.61656 C421.966988,5055.62163 421.942645,5055.62979 421.920868,5055.64073 C421.877484,5055.67311 421.823326,5055.73006 421.758166,5055.81141 C421.693119,5055.89282 421.64432,5055.9443 421.611768,5055.96574 C421.676758,5056.13938 421.706687,5056.27244 421.701329,5056.36451 C421.695685,5056.45697 421.679608,5056.5926 421.652358,5056.77149 C421.625108,5056.95038 421.611597,5057.09438 421.611597,5057.20304 C421.611597,5057.37623 421.66319,5057.57758 421.766204,5057.8051 C421.869332,5058.03296 421.99133,5058.19019 422.132426,5058.27719 C422.208589,5058.32051 422.338853,5058.34742 422.523161,5058.3582 C422.707583,5058.36926 422.837848,5058.3582 422.913726,5058.32582 C422.978886,5058.29366 423.027572,5058.25541 423.060123,5058.21208 C423.092675,5058.16876 423.119925,5058.10593 423.141474,5058.02481 C423.163194,5057.94363 423.179613,5057.88668 423.190444,5057.8543 C423.266323,5057.64787 423.407361,5057.53945 423.613276,5057.5285 C423.743996,5057.51761 423.838402,5057.53163 423.898489,5057.56909 C423.958176,5057.60711 423.982405,5057.65859 423.971459,5057.72381 C423.960514,5057.78874 423.938908,5057.85664 423.906641,5057.92721 C423.873918,5057.99785 423.833328,5058.07629 423.784415,5058.16334 C423.735901,5058.25051 423.705857,5058.3155 423.695368,5058.35905 C423.673648,5058.44582 423.654379,5058.56776 423.638416,5058.72544 C423.622055,5058.88267 423.608316,5058.9777 423.597427,5059.01043 C423.619319,5059.02103 423.700555,5059.02644 423.84148,5059.02644 C423.84148,5059.00495 423.849689,5058.96944 423.866051,5058.92069 C423.88207,5058.87195 423.890279,5058.84208 423.890279,5058.83136 C423.944722,5058.91836 424.031546,5058.96676 424.150922,5058.9777 C424.270297,5058.98859 424.357292,5058.94532 424.411507,5058.84755 C424.433398,5058.88016 424.498502,5058.96168 424.607046,5059.092 C424.715476,5059.22193 424.775164,5059.33041 424.786166,5059.41741 C424.797055,5059.46113 424.81849,5059.53137 424.850928,5059.62931 C424.883707,5059.72685 424.894653,5059.79474 424.883707,5059.83294 C424.872819,5059.87039 424.81849,5059.88972 424.721006,5059.88972 C424.677679,5059.88972 424.650429,5059.90608 424.639826,5059.93846 C424.628538,5059.97124 424.628538,5060.0116 424.639826,5060.0604 C424.650771,5060.10914 424.664453,5060.15543 424.680416,5060.19876 C424.696606,5060.24186 424.718269,5060.28832 424.745234,5060.33712 C424.772883,5060.38552 424.786223,5060.4155 424.786223,5060.42639 C424.981306,5060.78418 425.247421,5060.88195 425.583713,5060.71947 C425.583713,5061.03399 425.507664,5061.20758 425.355452,5061.23996 C425.269654,5061.26151 425.172284,5061.20672 425.063797,5061.0768 Z M425.306881,5064.75388 C425.285446,5064.64539 425.2745,5064.55874 425.275697,5064.49398 C425.264352,5064.40699 425.302605,5064.29029 425.389201,5064.14395 C425.475968,5063.99767 425.519294,5063.88622 425.519294,5063.81034 C425.345703,5063.76701 425.280657,5063.6258 425.323641,5063.38717 C425.345475,5063.2243 425.502704,5063.00732 425.795728,5062.73613 C426.002098,5062.5516 426.066916,5062.2909 425.991209,5061.95484 C425.958429,5061.81374 425.931122,5061.60737 425.90963,5061.33613 C425.888195,5061.06477 425.866304,5060.87493 425.84447,5060.7665 C425.84447,5060.79888 425.895948,5060.82876 425.999362,5060.85584 C426.102433,5060.88274 426.1648,5060.91826 426.186463,5060.96119 C426.208126,5060.92903 426.235091,5060.86912 426.267814,5060.78247 C426.300195,5060.69547 426.333032,5060.63054 426.364956,5060.58699 C426.386847,5060.55443 426.432853,5060.51384 426.503544,5060.46482 C426.57412,5060.41607 426.620183,5060.38643 426.641846,5060.37549 C426.66311,5060.36477 426.712251,5060.32965 426.787958,5060.26979 C426.864008,5060.2101 426.926489,5060.16421 426.975402,5060.13166 C427.024543,5060.09911 427.089134,5060.07471 427.170713,5060.05869 C427.252292,5060.04233 427.309072,5060.06656 427.341396,5060.13166 C427.395839,5060.19688 427.385121,5060.2971 427.309072,5060.43289 C427.232966,5060.56869 427.232966,5060.66366 427.309072,5060.7181 C427.320132,5060.68532 427.330735,5060.61452 427.341396,5060.50603 C427.352512,5060.39755 427.385121,5060.3162 427.439165,5060.26158 C427.504326,5060.19682 427.566522,5060.15857 427.626438,5060.14802 C427.686126,5060.13674 427.740169,5060.14489 427.788798,5060.17242 C427.837939,5060.19956 427.89489,5060.23701 427.959709,5060.28615 C428.024869,5060.3349 428.0845,5060.36482 428.138772,5060.37549 C428.301474,5060.42976 428.496956,5060.54913 428.724818,5060.73367 C428.71393,5060.72261 428.71393,5060.7091 428.724818,5060.69268 C428.735764,5060.67672 428.757199,5060.66035 428.790036,5060.64394 C428.822417,5060.62797 428.852061,5060.61161 428.879368,5060.59519 C428.906276,5060.579 428.93592,5060.56595 428.9687,5060.55483 L429.017442,5060.53847 C429.093149,5060.53847 429.147535,5060.53317 429.179973,5060.52205 C429.212297,5060.51134 429.258987,5060.52205 429.318276,5060.55483 C429.377621,5060.58721 429.41861,5060.61161 429.440045,5060.62797 C429.46188,5060.64394 429.499733,5060.67381 429.554005,5060.71731 C429.60822,5060.76063 429.646473,5060.79341 429.667509,5060.81485 C429.700289,5060.83628 429.759976,5060.87453 429.846629,5060.92881 C429.933624,5060.98302 430.001521,5061.02635 430.05032,5061.05867 C430.099461,5061.09105 430.142731,5061.14025 430.180185,5061.20478 C430.218039,5061.27034 430.23212,5061.3408 430.221174,5061.41685 C430.286392,5061.4278 430.416314,5061.4709 430.611796,5061.54677 C430.644576,5061.56827 430.712073,5061.58759 430.81543,5061.60355 C430.918501,5061.61992 430.986341,5061.64454 431.018893,5061.6767 C429.446715,5063.33786 427.542065,5064.36326 425.306881,5064.75388 Z" id="path-2"></path>
        <filter x="-76.0%" y="-56.0%" width="252.0%" height="252.0%" filterUnits="objectBoundingBox" id="filter-3">
            <feOffset dx="0" dy="5" in="SourceAlpha" result="shadowOffsetOuter1"></feOffset>
            <feGaussianBlur stdDeviation="5.5" in="shadowOffsetOuter1" result="shadowBlurOuter1"></feGaussianBlur>
            <feColorMatrix values="0 0 0 0 0   0 0 0 0 0.501092657   0 0 0 0 1  0 0 0 0.443618881 0" type="matrix" in="shadowBlurOuter1"></feColorMatrix>
        </filter>
    </defs>
    <g id="Page-1" stroke="none" stroke-width="1" fill="none" fill-rule="evenodd">
        <g id="About-Us-Page-Design---weDevs" transform="translate(-400.000000, -5036.000000)" fill-rule="nonzero">
            <g id="Shape-Copy">
                <use fill="black" fill-opacity="1" filter="url(#filter-3)" xlink:href="#path-2"></use>
                <use fill="url(#linearGradient-1)" xlink:href="#path-2"></use>
            </g>
        </g>
    </g>
</svg>